<svg width="173" height="55" viewBox="0 0 173 55" fill="none" xmlns="http://www.w3.org/2000/svg">
<path d="M35.722 30.334C35.722 33.8368 35.7842 36.0863 35.9088 37.0827H29.814V12.68H35.722V14.7817C37.8548 13.0692 40.0421 12.213 42.2838 12.213C44.9304 12.213 46.853 13.3572 48.0517 15.6457C49.2505 14.4159 50.2468 13.6063 51.0408 13.2171C52.364 12.5477 53.6873 12.213 55.0106 12.213C56.3494 12.213 57.4859 12.4387 58.4199 12.8902C59.354 13.3417 60.1246 13.98 60.7318 14.8051C61.9616 16.4708 62.5766 18.7593 62.5766 21.6705V30.9645C62.5766 33.5955 62.6155 35.1756 62.6933 35.7049C62.7712 36.2342 62.8723 36.5767 62.9969 36.7324C63.137 36.8881 63.2538 37.0282 63.3472 37.1527L63.3005 37.2461C62.055 37.1372 61.1365 37.0827 60.5449 37.0827H58.7936C58.2176 37.0827 57.5092 37.106 56.6685 37.1527V24.5194C56.6685 20.8765 56.1081 18.7126 54.9872 18.0276C54.6136 17.8097 54.1699 17.7007 53.6562 17.7007C53.158 17.7007 52.7143 17.7629 52.3251 17.8875C51.9359 17.9965 51.5701 18.1833 51.2276 18.4479C50.6516 18.8683 49.9977 19.6934 49.266 20.9232C49.2816 21.0478 49.2894 21.1723 49.2894 21.2969C49.2894 21.4214 49.2894 23.4764 49.2894 27.4617C49.2894 31.4471 49.3828 34.6541 49.5696 37.0827C48.2463 37.0827 47.1177 37.0827 46.1836 37.0827C45.2651 37.0827 44.3855 37.106 43.5448 37.1527V24.4961C43.5448 21.9585 43.3892 20.3083 43.0778 19.5455C42.782 18.7826 42.4629 18.2845 42.1204 18.051C41.7779 17.8174 41.3575 17.7007 40.8594 17.7007C38.8044 17.7007 37.0919 18.6892 35.722 20.6664V30.334Z" fill="#CACACA"/>
<path d="M85.4613 35.6349C83.2507 36.8336 81.2502 37.433 79.4599 37.433C77.6696 37.433 76.1362 37.2695 74.8596 36.9426C73.583 36.6001 72.5011 36.1019 71.6137 35.4481C69.8078 34.1248 68.9049 32.2099 68.9049 29.7035C68.9049 27.4617 70.0102 25.5936 72.2209 24.0991C74.6183 22.48 77.872 21.6705 81.9819 21.6705L82.916 21.6938C83.1028 21.7094 83.313 21.725 83.5465 21.7405C83.78 21.7405 83.9902 21.7561 84.177 21.7872C84.0524 19.2964 82.9783 17.8408 80.9544 17.4205C80.285 17.2803 79.5689 17.2103 78.8061 17.2103C78.0588 17.2103 77.3193 17.2803 76.5876 17.4205C75.8715 17.545 75.171 17.7162 74.486 17.9342C72.9759 18.4168 71.8939 18.9695 71.2401 19.5922L71.17 19.5455L70.4695 14.3847C73.225 12.9369 76.2374 12.213 79.5066 12.213C84.5817 12.213 87.8276 14.0422 89.2443 17.7007C89.6958 18.8683 89.9215 20.1838 89.9215 21.6471V30.1005C89.9215 31.9064 90.5598 33.1362 91.8364 33.7901L87.6097 37.6665C86.7223 37.1994 86.0062 36.5222 85.4613 35.6349ZM84.2003 25.9906C83.78 25.9127 83.3441 25.8738 82.8926 25.8738H81.9586C78.5181 25.8738 76.3308 26.6366 75.3967 28.1623C75.1165 28.6138 74.9764 29.0886 74.9764 29.5868C74.9764 30.0849 75.062 30.5286 75.2332 30.9178C75.4201 31.2914 75.7236 31.6028 76.144 31.8519C76.9535 32.3189 78.1522 32.5524 79.7401 32.5524C81.3436 32.5524 82.8381 32.171 84.2237 31.4082C84.2081 31.2369 84.2003 31.0579 84.2003 30.8711V25.9906Z" fill="#CACACA"/>
<path d="M96.0163 5.88466C97.0283 4.2656 98.1881 2.73995 99.4958 1.30771L103.956 4.83383C103.178 5.83017 102.648 6.51516 102.368 6.88879L101.551 8.03303C101.286 8.39109 101.006 8.79585 100.71 9.24732L96.0163 5.88466ZM93.4243 40.7022C95.7283 40.7022 96.8804 38.9897 96.8804 35.5648V12.68H102.555V33.8835C102.555 40.422 100.694 44.2906 96.9738 45.4893C95.7595 45.8785 94.3817 46.0731 92.8405 46.0731L90.4119 39.9316L90.4586 39.8148C91.346 40.4064 92.3345 40.7022 93.4243 40.7022Z" fill="#CACACA"/>
<path d="M108.486 5.7212C109.732 3.77522 111.032 2.06275 112.386 0.583801L117.407 4.53026C116.737 5.35535 116.114 6.16488 115.538 6.95885C115.538 6.95885 114.939 7.80729 113.74 9.50419L108.486 5.7212ZM114.628 34.4673C114.628 35.8061 114.659 36.6779 114.721 37.0827H108.79V12.68H114.628V34.4673Z" fill="#CACACA"/>
<path d="M127.378 34.0937C127.378 35.4636 127.44 36.46 127.565 37.0827H121.703V12.68H127.378V14.7584C129.433 13.0615 131.628 12.213 133.963 12.213C136.516 12.213 138.556 13.0848 140.081 14.8284C141.607 16.5564 142.37 18.8371 142.37 21.6705V30.9645C142.37 33.5955 142.409 35.1756 142.486 35.7049C142.564 36.2342 142.665 36.5767 142.79 36.7324C142.93 36.8881 143.047 37.0282 143.14 37.1527L143.094 37.2461C141.833 37.1372 140.914 37.0827 140.338 37.0827H138.703C138.205 37.0827 137.536 37.106 136.695 37.1527V24.426C136.695 19.8646 135.31 17.5839 132.539 17.5839C130.484 17.5839 128.763 18.6425 127.378 20.7598V34.0937Z" fill="#CACACA"/>
<path d="M148.044 25.0799C148.044 23.2584 148.356 21.5693 148.978 20.0125C149.601 18.4557 150.481 17.0935 151.617 15.9259C154.046 13.4506 157.221 12.213 161.145 12.213C164.461 12.213 167.123 13.3105 169.131 15.5056C171.108 17.6228 172.097 20.2849 172.097 23.4919C172.097 24.7218 172.003 25.5625 171.816 26.0139C170.26 26.4498 167.091 26.6678 162.312 26.6678H154.092C154.497 28.3335 155.439 29.6335 156.918 30.5675C158.397 31.486 160.319 31.9453 162.686 31.9453C165.161 31.9453 167.286 31.5016 169.061 30.6142C169.528 30.3807 169.878 30.1628 170.112 29.9604C170.081 30.6142 170.042 31.2836 169.995 31.9686L169.738 35.6115C168.555 36.421 166.64 36.9815 163.993 37.2928C163.215 37.3863 162.468 37.433 161.752 37.433C157.797 37.433 154.528 36.2809 151.944 33.9769C149.344 31.6573 148.044 28.6916 148.044 25.0799ZM165.885 22.1375C165.247 18.7904 163.425 17.1169 160.421 17.1169C158.054 17.1169 156.256 18.1366 155.026 20.176C154.653 20.7987 154.365 21.4837 154.162 22.2309C154.536 22.2465 154.995 22.2621 155.54 22.2776H157.268C157.844 22.2932 158.397 22.301 158.926 22.301H160.257C161.051 22.301 161.83 22.2932 162.592 22.2776L164.507 22.2076C165.021 22.192 165.48 22.1687 165.885 22.1375Z" fill="#CACACA"/>
<path d="M6.43868 13.2899C8.64932 12.0911 10.6498 11.4918 12.4401 11.4918C14.2304 11.4918 15.7638 11.6552 17.0404 11.9822C18.317 12.3247 19.3989 12.8228 20.2863 13.4767C22.0922 14.8 22.9951 16.7148 22.9951 19.2212C22.9951 21.463 21.8898 23.3311 19.6792 24.8257C17.2817 26.4447 14.028 27.2542 9.9181 27.2542L8.98403 27.2309C8.79722 27.2153 8.58705 27.1998 8.35353 27.1842C8.12002 27.1842 7.90985 27.1686 7.72303 27.1375C7.84758 29.6283 8.92176 31.0839 10.9456 31.5043C11.615 31.6444 12.3311 31.7144 13.094 31.7144C13.8412 31.7144 14.5807 31.6444 15.3124 31.5043C16.0285 31.3797 16.729 31.2085 17.414 30.9905C18.9241 30.5079 20.0061 29.9553 20.6599 29.3326L20.73 29.3793L21.4305 34.54C18.675 35.9878 15.6626 36.7117 12.3934 36.7117C7.31827 36.7117 4.07237 34.8825 2.65569 31.2241C2.20422 30.0565 1.97849 28.741 1.97849 27.2776V18.8242C1.97849 17.0184 1.34021 15.7885 0.0636406 15.1347L4.29032 11.2583C5.17769 11.7253 5.89381 12.4025 6.43868 13.2899ZM7.69968 22.9342C8.12002 23.012 8.55592 23.0509 9.00738 23.0509H9.94146C13.382 23.0509 15.5692 22.2881 16.5033 20.7624C16.7835 20.311 16.9236 19.8362 16.9236 19.338C16.9236 18.8398 16.838 18.3961 16.6668 18.0069C16.48 17.6333 16.1764 17.3219 15.7561 17.0729C14.9465 16.6058 13.7478 16.3723 12.1599 16.3723C10.5564 16.3723 9.06187 16.7537 7.67633 17.5165C7.6919 17.6878 7.69968 17.8668 7.69968 18.0536V22.9342Z" fill="#CACACA"/>
<path d="M7.22442 50.2062C6.18683 49.1686 6.18683 47.4863 7.22442 46.4487L9.49223 44.1809C10.5298 43.1433 12.2121 43.1433 13.2497 44.1809L15.5175 46.4487C16.5551 47.4863 16.5551 49.1686 15.5175 50.2062L13.2497 52.474C12.2121 53.5116 10.5298 53.5116 9.49223 52.474L7.22442 50.2062Z" fill="#CACACA"/>
</svg>
