<svg width="179" height="61" viewBox="0 0 179 61" fill="none" xmlns="http://www.w3.org/2000/svg">
<path d="M80.9354 35.8685H76.9786V27.397C76.9786 26.3504 76.8013 25.5677 76.4467 25.0488C76.1007 24.5212 75.5515 24.2574 74.7991 24.2574C73.7872 24.2574 73.052 24.6293 72.5936 25.3731C72.1352 26.1169 71.9061 27.3407 71.9061 29.0446V35.8685H67.9492V21.3644H70.972L71.5039 23.2196H71.7244C72.1136 22.5536 72.6758 22.0347 73.4109 21.6628C74.1461 21.2822 74.9894 21.092 75.9407 21.092C78.1116 21.092 79.5819 21.8012 80.3516 23.2196H80.7019C81.0911 22.545 81.6619 22.0217 82.4144 21.6498C83.1755 21.2779 84.0317 21.092 84.9831 21.092C86.6263 21.092 87.8674 21.5158 88.7064 22.3633C89.554 23.2023 89.9778 24.5515 89.9778 26.411V35.8685H86.0079V27.397C86.0079 26.3504 85.8307 25.5677 85.476 25.0488C85.1301 24.5212 84.5809 24.2574 83.8284 24.2574C82.8598 24.2574 82.1333 24.6034 81.6489 25.2953C81.1733 25.9872 80.9354 27.0856 80.9354 28.5905V35.8685Z" fill="#CACACA"/>
<path d="M103.262 35.8685L102.497 33.8965H102.393C101.727 34.7355 101.04 35.3193 100.33 35.6479C99.6298 35.9679 98.7131 36.1279 97.5801 36.1279C96.1876 36.1279 95.0892 35.7301 94.2849 34.9344C93.4892 34.1387 93.0913 33.0057 93.0913 31.5354C93.0913 29.9959 93.6276 28.8629 94.7 28.1364C95.7811 27.4013 97.4071 26.9948 99.5779 26.9169L102.095 26.8391V26.2034C102.095 24.7331 101.342 23.998 99.8374 23.998C98.6785 23.998 97.3163 24.3482 95.7508 25.0488L94.4405 22.3763C96.1098 21.5028 97.9606 21.066 99.9931 21.066C101.939 21.066 103.431 21.4898 104.469 22.3374C105.507 23.185 106.026 24.4737 106.026 26.2034V35.8685H103.262ZM102.095 29.1483L100.564 29.2002C99.4136 29.2348 98.5574 29.4424 97.9952 29.8229C97.433 30.2035 97.152 30.783 97.152 31.5614C97.152 32.6771 97.792 33.2349 99.072 33.2349C99.9888 33.2349 100.72 32.9711 101.264 32.4435C101.818 31.916 102.095 31.2154 102.095 30.3419V29.1483Z" fill="#CACACA"/>
<path d="M123.501 35.8685H119.544V27.397C119.544 26.3504 119.358 25.5677 118.986 25.0488C118.614 24.5212 118.022 24.2574 117.209 24.2574C116.102 24.2574 115.301 24.6293 114.809 25.3731C114.316 26.1083 114.069 27.3321 114.069 29.0446V35.8685H110.112V21.3644H113.135L113.667 23.2196H113.887C114.329 22.519 114.934 21.9914 115.704 21.6368C116.482 21.2736 117.364 21.092 118.35 21.092C120.037 21.092 121.317 21.5504 122.19 22.4671C123.064 23.3753 123.501 24.6899 123.501 26.411V35.8685Z" fill="#CACACA"/>
<path d="M133.685 32.9754C134.376 32.9754 135.207 32.8241 136.175 32.5214V35.4663C135.189 35.9074 133.979 36.1279 132.543 36.1279C130.96 36.1279 129.806 35.7301 129.079 34.9344C128.361 34.1301 128.002 32.9279 128.002 31.3278V24.3353H126.108V22.6617L128.288 21.3385L129.429 18.2768H131.959V21.3644H136.02V24.3353H131.959V31.3278C131.959 31.89 132.115 32.3052 132.426 32.5733C132.746 32.8414 133.166 32.9754 133.685 32.9754Z" fill="#CACACA"/>
<path d="M152.509 35.8685H148.552V27.397C148.552 25.3039 147.773 24.2574 146.217 24.2574C145.11 24.2574 144.31 24.6337 143.817 25.3861C143.324 26.1386 143.077 27.358 143.077 29.0446V35.8685H139.12V15.6821H143.077V19.7946C143.077 20.1146 143.047 20.8671 142.986 22.052L142.896 23.2196H143.103C143.985 21.8012 145.386 21.092 147.306 21.092C149.01 21.092 150.303 21.5504 151.185 22.4671C152.068 23.3839 152.509 24.6985 152.509 26.411V35.8685Z" fill="#CACACA"/>
<path d="M166.857 35.8685L166.325 34.0133H166.118C165.694 34.6879 165.093 35.2112 164.314 35.5831C163.536 35.9463 162.649 36.1279 161.655 36.1279C159.951 36.1279 158.667 35.6739 157.802 34.7657C156.937 33.849 156.504 32.5344 156.504 30.8219V21.3644H160.461V29.8359C160.461 30.8824 160.647 31.6695 161.019 32.197C161.391 32.716 161.983 32.9754 162.796 32.9754C163.904 32.9754 164.704 32.6079 165.197 31.8727C165.69 31.1289 165.936 29.9008 165.936 28.1883V21.3644H169.893V35.8685H166.857Z" fill="#CACACA"/>
<path d="M178.001 35.8685H174.044V15.6821H178.001V35.8685Z" fill="#CACACA"/>
<path d="M0.779079 25.2407C0.77908 21.9261 1.43195 18.6439 2.70041 15.5815C3.96888 12.5192 5.8281 9.73666 8.17191 7.39284C10.5157 5.04902 13.2982 3.1898 16.3606 1.92134C19.4229 0.652875 22.7051 5.13301e-06 26.0198 5.42278e-06C29.3344 5.71256e-06 32.6166 0.652876 35.679 1.92134C38.7413 3.18981 41.5239 5.04902 43.8677 7.39284C46.2115 9.73666 48.0707 12.5192 49.3392 15.5815C50.6076 18.6439 51.2605 21.9261 51.2605 25.2407L38.6401 25.2407C38.6401 23.5834 38.3137 21.9423 37.6795 20.4111C37.0452 18.8799 36.1156 17.4887 34.9437 16.3168C33.7718 15.1449 32.3806 14.2153 30.8494 13.581C29.3182 12.9468 27.6771 12.6204 26.0198 12.6204C24.3625 12.6204 22.7214 12.9468 21.1902 13.581C19.659 14.2153 18.2678 15.1449 17.0958 16.3168C15.9239 17.4887 14.9943 18.8799 14.3601 20.4111C13.7259 21.9423 13.3994 23.5834 13.3994 25.2407L0.779079 25.2407Z" fill="#CACACA"/>
<path fill-rule="evenodd" clip-rule="evenodd" d="M17.3773 46.1054C15.4594 45.311 13.6641 44.2575 12.0402 42.9777L17.2605 37.7575C18.1683 38.3928 19.1448 38.929 20.1734 39.3551C22.0269 40.1228 24.0135 40.518 26.0198 40.518C28.026 40.518 30.0126 40.1228 31.8661 39.3551C32.8948 38.929 33.8712 38.3928 34.7791 37.7575L39.9993 42.9777C38.3755 44.2575 36.5802 45.311 34.6622 46.1054C31.9222 47.2404 28.9855 47.8245 26.0198 47.8245C23.054 47.8245 20.1173 47.2404 17.3773 46.1054ZM41.8898 44.8682C42.5786 44.3112 43.2389 43.7173 43.8677 43.0886L34.9437 34.1647C33.7718 35.3366 32.3805 36.2662 30.8494 36.9004C29.3182 37.5346 27.6771 37.8611 26.0198 37.8611C24.3624 37.8611 22.7213 37.5346 21.1902 36.9004C19.659 36.2662 18.2677 35.3366 17.0958 34.1647L8.1719 43.0886C8.80064 43.7173 9.46096 44.3112 10.1498 44.8682C12.0287 46.3874 14.1197 47.6319 16.3606 48.5601C19.4229 49.8286 22.7051 50.4814 26.0198 50.4814C29.3344 50.4814 32.6166 49.8286 35.679 48.5601C37.9198 47.6319 40.0108 46.3874 41.8898 44.8682Z" fill="#CACACA"/>
</svg>
