<svg width="170" height="33" viewBox="0 0 170 33" fill="none" xmlns="http://www.w3.org/2000/svg">
<path d="M57.2394 16.6614H66.7345L64.0023 29.5127C62.4957 30.0299 61.0959 30.3784 59.8029 30.5583C58.5211 30.7495 57.1606 30.8451 55.7215 30.8451C52.8094 30.8451 50.5607 30.0187 48.9754 28.3659C47.3901 26.7131 46.5974 24.3407 46.5974 21.2488C46.5974 18.2355 47.1989 15.5146 48.402 13.086C49.605 10.6462 51.2972 8.76851 53.4784 7.45302C55.6596 6.1263 58.1782 5.46293 61.034 5.46293C63.4851 5.46293 65.79 6.01948 67.9488 7.13259L66.0093 11.3657C65.1772 10.916 64.3452 10.5562 63.5132 10.2864C62.6812 10.0165 61.7761 9.88161 60.7979 9.88161C59.0777 9.88161 57.5373 10.3482 56.1768 11.2814C54.8276 12.2146 53.7651 13.547 52.9893 15.2785C52.2248 16.9987 51.8425 18.8539 51.8425 20.844C51.8425 22.7779 52.2473 24.2002 53.0568 25.1109C53.8776 26.0104 55.1312 26.4601 56.8177 26.4601C57.6722 26.4601 58.6279 26.3252 59.6848 26.0553L60.7979 21.0126H56.2949L57.2394 16.6614Z" fill="#CACACA"/>
<path d="M74.0708 30.5077H68.9944L74.5599 4.2655H79.6363L74.0708 30.5077Z" fill="#CACACA"/>
<path d="M92.2009 18.7696C92.2009 16.5546 91.397 15.4471 89.7892 15.4471C88.9459 15.4471 88.187 15.7901 87.5124 16.4759C86.849 17.1618 86.3037 18.168 85.8765 19.4948C85.4604 20.8215 85.2524 22.1876 85.2524 23.593C85.2524 25.6731 86.0957 26.7131 87.7822 26.7131C88.6255 26.7131 89.3844 26.3702 90.059 25.6843C90.7336 24.9872 91.2565 24.0259 91.6275 22.8004C92.0098 21.5636 92.2009 20.22 92.2009 18.7696ZM97.3111 18.7696C97.3111 21.1419 96.9119 23.2445 96.1136 25.0772C95.3266 26.9098 94.1854 28.3321 92.69 29.344C91.1946 30.3447 89.4181 30.8451 87.3606 30.8451C85.1681 30.8451 83.4141 30.1873 82.0987 28.8718C80.7944 27.5451 80.1423 25.7855 80.1423 23.593C80.1423 21.1982 80.5414 19.0675 81.3397 17.2011C82.1492 15.3234 83.3129 13.873 84.8308 12.8499C86.3487 11.8155 88.1251 11.2983 90.1602 11.2983C92.3639 11.2983 94.1067 11.9617 95.3884 13.2884C96.6702 14.6151 97.3111 16.4422 97.3111 18.7696Z" fill="#CACACA"/>
<path d="M113.266 16.0037C112.568 18.005 111.877 19.7983 111.191 21.3837L107.262 30.5077H101.797L100.937 11.6525H105.676L105.744 20.0007L105.676 22.8172L105.558 25.7012H105.626C105.693 25.4763 105.772 25.2458 105.862 25.0097C105.952 24.7623 106.238 23.9922 106.722 22.6992C107.205 21.4062 107.464 20.7372 107.498 20.6922L111.393 11.6525H116.925V20.6922C116.925 22.2888 116.869 23.9584 116.757 25.7012H116.858L117.33 24.3519C118.151 22.0133 118.685 20.5629 118.932 20.0007L122.626 11.6525H127.803L118.865 30.5077H113.299L113.198 21.7378C113.198 19.9951 113.254 18.0837 113.367 16.0037H113.266Z" fill="#CACACA"/>
<path d="M150.234 5.85083L146.844 21.8053C146.203 24.7961 144.978 27.0504 143.168 28.5682C141.357 30.0861 139.002 30.8451 136.101 30.8451C133.717 30.8451 131.84 30.2098 130.468 28.9393C129.108 27.6575 128.427 25.926 128.427 23.7448C128.427 22.9353 128.512 22.1595 128.68 21.4174L131.986 5.85083H137.13L133.858 21.3499C133.667 22.182 133.571 22.8847 133.571 23.4581C133.571 25.4594 134.634 26.4601 136.759 26.4601C138.142 26.4601 139.238 26.0328 140.047 25.1783C140.857 24.3126 141.442 23.0252 141.801 21.3162L145.073 5.85083H150.234Z" fill="#CACACA"/>
<path d="M158.734 17.4541H159.679C161.275 17.4541 162.529 17.0662 163.439 16.2904C164.361 15.5146 164.822 14.4746 164.822 13.1703C164.822 11.1465 163.726 10.1346 161.534 10.1346H160.286L158.734 17.4541ZM170 13.0354C170 15.7451 169.044 17.8757 167.133 19.4273C165.233 20.9677 162.607 21.7378 159.257 21.7378H157.807L155.968 30.5077H150.824L156.036 5.85083H161.736C164.457 5.85083 166.515 6.45236 167.909 7.65541C169.303 8.84721 170 10.6405 170 13.0354Z" fill="#CACACA"/>
<path d="M27.7189 10.4902H17.1793L21.07 2.40733C21.4353 1.46081 20.385 0.526733 18.9511 0.526733H5.79937C4.70339 0.526733 3.77181 1.08095 3.62568 1.82198L0.70307 16.7671C0.529541 17.6638 1.55245 18.4609 2.87676 18.4609H13.7178L9.50742 30.5727C9.17863 31.5193 10.2381 32.4097 11.6354 32.4097C12.4026 32.4097 13.1333 32.1357 13.5351 31.6625L29.6095 12.7319C30.4589 11.7418 29.4085 10.4902 27.7189 10.4902Z" fill="#CACACA"/>
</svg>
