<svg width="148" height="33" viewBox="0 0 148 33" fill="none" xmlns="http://www.w3.org/2000/svg">
<path d="M20.5108 29.732C19.3743 30.635 17.8954 31.3355 16.0739 31.8337C14.2525 32.3319 12.0107 32.581 9.34862 32.581C6.70208 32.581 3.8843 32.3397 0.895264 31.8571V1.07937C3.91543 0.596771 6.53083 0.355469 8.74147 0.355469C10.9677 0.355469 12.7891 0.565635 14.2058 0.985968C15.638 1.4063 16.8056 1.97453 17.7086 2.69065C19.4833 4.07619 20.3707 5.87428 20.3707 8.08492C20.3707 10.28 19.5689 12.1014 17.9654 13.5492C19.8647 14.1408 21.3359 15.2617 22.3789 16.9119C23.3286 18.3909 23.8034 20.0333 23.8034 21.8391C23.8034 23.6294 23.5387 25.1629 23.0094 26.4394C22.4957 27.716 21.6628 28.8135 20.5108 29.732ZM7.08349 12.6852C7.73734 12.7942 8.55466 12.8487 9.53543 12.8487C10.5162 12.8487 11.318 12.7241 11.9407 12.4751C12.579 12.2104 13.0693 11.8835 13.4118 11.4943C13.9723 10.856 14.2525 9.96863 14.2525 8.83218C14.2525 6.45029 12.8514 5.25935 10.0492 5.25935C8.86601 5.25935 7.87745 5.30605 7.08349 5.39946V12.6852ZM10.5396 17.6825C9.23186 17.6825 8.07984 17.7681 7.08349 17.9394V27.1166C8.17324 27.3969 9.31748 27.537 10.5162 27.537C11.7149 27.537 12.7658 27.3969 13.6687 27.1166C14.5872 26.8209 15.3578 26.4239 15.9805 25.9257C17.2415 24.8982 17.872 23.5905 17.872 22.0026C17.872 19.1225 15.4279 17.6825 10.5396 17.6825Z" fill="#CACACA"/>
<path d="M26.5122 19.9243C26.5122 18.2118 26.8002 16.5772 27.3762 15.0204C27.9678 13.4481 28.8085 12.0781 29.8982 10.9105C32.2801 8.38849 35.3703 7.12749 39.1689 7.12749C42.9519 7.12749 45.9565 8.31844 48.1827 10.7003C50.3155 12.9732 51.3819 15.9233 51.3819 19.5507C51.3819 23.178 50.2843 26.1826 48.0893 28.5645C45.7697 31.0865 42.695 32.3474 38.8653 32.3474C34.9111 32.3474 31.8131 31.1098 29.5713 28.6345C27.5319 26.3772 26.5122 23.4738 26.5122 19.9243ZM32.1867 19.7842C32.1867 20.765 32.3502 21.7146 32.6771 22.6331C33.004 23.5516 33.471 24.3378 34.0782 24.9916C35.3703 26.4083 37.0672 27.1166 39.1689 27.1166C41.1149 27.1166 42.6483 26.4239 43.7692 25.0383C44.8589 23.6995 45.4038 21.9559 45.4038 19.8075C45.4038 17.628 44.8434 15.8689 43.7225 14.53C42.5238 13.0978 40.8813 12.3817 38.7953 12.3817C36.678 12.3817 35.02 13.1445 33.8213 14.6701C32.7316 16.0712 32.1867 17.7759 32.1867 19.7842Z" fill="#CACACA"/>
<path d="M54.4877 19.9243C54.4877 18.2118 54.7757 16.5772 55.3517 15.0204C55.9433 13.4481 56.7839 12.0781 57.8737 10.9105C60.2556 8.38849 63.3458 7.12749 67.1443 7.12749C70.9273 7.12749 73.9319 8.31844 76.1581 10.7003C78.2909 12.9732 79.3573 15.9233 79.3573 19.5507C79.3573 23.178 78.2598 26.1826 76.0647 28.5645C73.7451 31.0865 70.6705 32.3474 66.8408 32.3474C62.8865 32.3474 59.7885 31.1098 57.5468 28.6345C55.5074 26.3772 54.4877 23.4738 54.4877 19.9243ZM60.1622 19.7842C60.1622 20.765 60.3256 21.7146 60.6525 22.6331C60.9795 23.5516 61.4465 24.3378 62.0537 24.9916C63.3458 26.4083 65.0427 27.1166 67.1443 27.1166C69.0903 27.1166 70.6238 26.4239 71.7447 25.0383C72.8344 23.6995 73.3793 21.9559 73.3793 19.8075C73.3793 17.628 72.8188 15.8689 71.698 14.53C70.4992 13.0978 68.8568 12.3817 66.7707 12.3817C64.6535 12.3817 62.9955 13.1445 61.7968 14.6701C60.707 16.0712 60.1622 17.7759 60.1622 19.7842Z" fill="#CACACA"/>
<path d="M92.4577 32.3474C88.0676 32.3474 84.7594 31.5457 82.5332 29.9422C82.5643 29.4752 82.611 28.9459 82.6733 28.3543L82.8835 26.673C83.008 25.5676 83.0859 24.8827 83.117 24.618C83.1481 24.3378 83.1715 24.1899 83.187 24.1743C83.2026 24.1432 83.3272 24.2677 83.5607 24.5479C83.7942 24.8126 84.2379 25.1395 84.8917 25.5287C85.5456 25.9179 86.3006 26.2604 87.1569 26.5562C89.0094 27.1945 90.9398 27.5136 92.9481 27.5136C95.6413 27.5136 96.988 26.6185 96.988 24.8282C96.988 24.2522 96.7311 23.824 96.2174 23.5438C95.2989 23.0768 93.9444 22.7265 92.1541 22.493C90.3794 22.2439 88.9238 21.8858 87.7874 21.4188C86.6509 20.9518 85.7246 20.3913 85.0085 19.7375C83.6852 18.5076 83.0236 16.8963 83.0236 14.9036C83.0236 12.4751 83.9577 10.568 85.8258 9.18245C87.6784 7.81248 90.2393 7.12749 93.5085 7.12749C96.7467 7.12749 99.51 8.046 101.798 9.88301C101.689 10.2878 101.573 10.677 101.448 11.0506C101.09 12.0781 100.825 12.8176 100.654 13.269L100.117 14.6468C100.086 14.7713 100.063 14.8336 100.047 14.8336C100.016 14.8336 99.8914 14.6701 99.6734 14.3432C98.6926 13.2067 97.167 12.4595 95.0965 12.1014C94.4582 11.9769 93.8043 11.9146 93.1349 11.9146C90.3016 11.9146 88.8849 12.7708 88.8849 14.4833C88.8849 15.0749 89.1807 15.5264 89.7723 15.8377C90.8776 16.4293 92.3877 16.8652 94.3025 17.1454C96.2329 17.4256 97.6963 17.8071 98.6926 18.2897C99.689 18.7567 100.491 19.3249 101.098 19.9943C102.219 21.2086 102.779 22.8199 102.779 24.8282C102.779 27.0232 101.9 28.8058 100.14 30.1757C98.3035 31.6235 95.7425 32.3474 92.4577 32.3474Z" fill="#CACACA"/>
<path d="M116.417 32.3474C112.027 32.3474 108.718 31.5457 106.492 29.9422C106.523 29.4752 106.57 28.9459 106.632 28.3543L106.842 26.673C106.967 25.5676 107.045 24.8827 107.076 24.618C107.107 24.3378 107.13 24.1899 107.146 24.1743C107.162 24.1432 107.286 24.2677 107.52 24.5479C107.753 24.8126 108.197 25.1395 108.851 25.5287C109.505 25.9179 110.26 26.2604 111.116 26.5562C112.968 27.1945 114.899 27.5136 116.907 27.5136C119.6 27.5136 120.947 26.6185 120.947 24.8282C120.947 24.2522 120.69 23.824 120.176 23.5438C119.258 23.0768 117.903 22.7265 116.113 22.493C114.338 22.2439 112.883 21.8858 111.746 21.4188C110.61 20.9518 109.684 20.3913 108.967 19.7375C107.644 18.5076 106.983 16.8963 106.983 14.9036C106.983 12.4751 107.917 10.568 109.785 9.18245C111.637 7.81248 114.198 7.12749 117.467 7.12749C120.706 7.12749 123.469 8.046 125.757 9.88301C125.648 10.2878 125.532 10.677 125.407 11.0506C125.049 12.0781 124.784 12.8176 124.613 13.269L124.076 14.6468C124.045 14.7713 124.022 14.8336 124.006 14.8336C123.975 14.8336 123.85 14.6701 123.632 14.3432C122.652 13.2067 121.126 12.4595 119.055 12.1014C118.417 11.9769 117.763 11.9146 117.094 11.9146C114.261 11.9146 112.844 12.7708 112.844 14.4833C112.844 15.0749 113.14 15.5264 113.731 15.8377C114.837 16.4293 116.347 16.8652 118.261 17.1454C120.192 17.4256 121.655 17.8071 122.652 18.2897C123.648 18.7567 124.45 19.3249 125.057 19.9943C126.178 21.2086 126.738 22.8199 126.738 24.8282C126.738 27.0232 125.859 28.8058 124.099 30.1757C122.262 31.6235 119.701 32.3474 116.417 32.3474Z" fill="#CACACA"/>
<path d="M142.991 26.8598C144.999 26.8598 146.377 26.3382 147.124 25.2952H147.311L147.381 30.7128C146.618 31.4756 145.202 31.9816 143.131 32.2307C142.571 32.3085 141.87 32.3474 141.029 32.3474C140.204 32.3474 139.301 32.1918 138.321 31.8804C137.355 31.5691 136.53 31.0631 135.845 30.3625C134.429 28.9147 133.72 26.6496 133.72 23.5672V12.9654H130.194C130.179 12.514 130.171 12.0547 130.171 11.5877V7.99151C130.171 7.72686 130.179 7.59453 130.194 7.59453H133.72V0.939264H139.442V7.59453H145.863V12.9654H139.442V22.493C139.442 24.9371 140.119 26.3305 141.473 26.673C141.909 26.7975 142.415 26.8598 142.991 26.8598Z" fill="#CACACA"/>
</svg>
