<svg width="193" height="39" viewBox="0 0 193 39" fill="none" xmlns="http://www.w3.org/2000/svg">
<path d="M75.1176 30.5967H69.9062V19.9548H60.1413V30.5967H54.9131V5.93982H60.1413V15.6036H69.9062V5.93982H75.1176V30.5967Z" fill="#CACACA"/>
<path d="M80.7337 6.86741C80.7337 5.19213 81.6669 4.35449 83.5333 4.35449C85.3997 4.35449 86.3329 5.19213 86.3329 6.86741C86.3329 7.66569 86.0968 8.2897 85.6246 8.73944C85.1636 9.17794 84.4665 9.39719 83.5333 9.39719C81.6669 9.39719 80.7337 8.55393 80.7337 6.86741ZM86.0968 30.5967H80.9529V11.7414H86.0968V30.5967Z" fill="#CACACA"/>
<path d="M107.92 11.7414V14.3556L104.969 15.1145C105.509 15.9577 105.779 16.9022 105.779 17.9478C105.779 19.9717 105.07 21.5514 103.654 22.687C102.248 23.8113 100.292 24.3735 97.7844 24.3735L96.8568 24.3229L96.0979 24.2386C95.5695 24.6433 95.3052 25.0931 95.3052 25.5878C95.3052 26.3298 96.2497 26.7009 98.1386 26.7009H101.343C103.412 26.7009 104.986 27.145 106.065 28.0332C107.156 28.9215 107.701 30.2257 107.701 31.946C107.701 34.1497 106.779 35.8587 104.935 37.073C103.103 38.2873 100.466 38.8944 97.0255 38.8944C94.3945 38.8944 92.3819 38.4334 90.9877 37.5115C89.6048 36.6007 88.9133 35.319 88.9133 33.6662C88.9133 32.5306 89.2675 31.5805 89.9758 30.816C90.6842 30.0514 91.7242 29.5061 93.0959 29.1801C92.5674 28.9552 92.1065 28.5898 91.7129 28.0838C91.3194 27.5666 91.1227 27.0213 91.1227 26.4479C91.1227 25.7283 91.3307 25.1324 91.7467 24.6602C92.1627 24.1767 92.7642 23.7045 93.5513 23.2435C92.5618 22.8163 91.7748 22.1304 91.1901 21.186C90.6167 20.2415 90.33 19.1284 90.33 17.8466C90.33 15.7891 90.999 14.1981 92.337 13.0738C93.6749 11.9495 95.5863 11.3873 98.0711 11.3873C98.5996 11.3873 99.2236 11.4379 99.9432 11.5391C100.674 11.629 101.141 11.6965 101.343 11.7414H107.92ZM93.3657 33.2614C93.3657 33.9698 93.703 34.5263 94.3776 34.9311C95.0635 35.3359 96.0192 35.5382 97.2447 35.5382C99.0887 35.5382 100.533 35.2853 101.579 34.7793C102.625 34.2733 103.148 33.5819 103.148 32.7049C103.148 31.9965 102.838 31.5075 102.22 31.2376C101.602 30.9678 100.646 30.8329 99.3529 30.8329H96.6882C95.7437 30.8329 94.9511 31.0521 94.3102 31.4906C93.6805 31.9403 93.3657 32.5306 93.3657 33.2614ZM95.2378 17.9141C95.2378 18.9373 95.4683 19.7468 95.9292 20.3427C96.4015 20.9386 97.1154 21.2366 98.0711 21.2366C99.0381 21.2366 99.7464 20.9386 100.196 20.3427C100.646 19.7468 100.871 18.9373 100.871 17.9141C100.871 15.6429 99.9375 14.5073 98.0711 14.5073C96.1822 14.5073 95.2378 15.6429 95.2378 17.9141Z" fill="#CACACA"/>
<path d="M128.445 30.5967H123.301V19.5838C123.301 16.8628 122.29 15.5024 120.266 15.5024C118.827 15.5024 117.787 15.9915 117.146 16.9697C116.505 17.9478 116.184 19.5332 116.184 21.7256V30.5967H111.04V4.35449H116.184V9.70076C116.184 10.1168 116.145 11.0949 116.066 12.6353L115.948 14.1532H116.218C117.365 12.3092 119.186 11.3873 121.682 11.3873C123.897 11.3873 125.578 11.9832 126.725 13.175C127.872 14.3668 128.445 16.0758 128.445 18.302V30.5967Z" fill="#CACACA"/>
<path d="M138.885 30.5967H133.741V4.35449H138.885V30.5967Z" fill="#CACACA"/>
<path d="M148.397 21.1354C148.397 23.0018 148.7 24.4128 149.308 25.3685C149.926 26.3242 150.927 26.8021 152.31 26.8021C153.681 26.8021 154.665 26.3298 155.261 25.3854C155.868 24.4297 156.172 23.013 156.172 21.1354C156.172 19.2689 155.868 17.8691 155.261 16.9359C154.654 16.0027 153.659 15.5361 152.276 15.5361C150.904 15.5361 149.915 16.0027 149.308 16.9359C148.7 17.8579 148.397 19.2577 148.397 21.1354ZM161.434 21.1354C161.434 24.2048 160.624 26.6053 159.005 28.3368C157.386 30.0683 155.132 30.934 152.242 30.934C150.432 30.934 148.835 30.5405 147.452 29.7535C146.069 28.9552 145.007 27.814 144.265 26.3298C143.523 24.8457 143.152 23.1142 143.152 21.1354C143.152 18.0547 143.956 15.6598 145.564 13.9508C147.171 12.2418 149.431 11.3873 152.343 11.3873C154.154 11.3873 155.75 11.7808 157.133 12.5678C158.516 13.3549 159.578 14.4849 160.321 15.9577C161.063 17.4306 161.434 19.1565 161.434 21.1354Z" fill="#CACACA"/>
<path d="M181.183 30.5967L179.732 24.0024L177.776 15.671H177.658L174.217 30.5967H168.686L163.323 11.7414H168.45L170.625 20.0897C170.974 21.5851 171.328 23.6483 171.688 26.2792H171.789C171.834 25.4247 172.031 24.0699 172.379 22.2147L172.649 20.7812L174.976 11.7414H180.643L182.852 20.7812C182.897 21.0285 182.965 21.394 183.055 21.8774C183.156 22.3609 183.252 22.8781 183.342 23.429C183.432 23.9687 183.51 24.5028 183.578 25.0312C183.656 25.5484 183.701 25.9644 183.713 26.2792H183.814C183.915 25.4697 184.095 24.3622 184.353 22.9568C184.612 21.5401 184.798 20.5844 184.91 20.0897L187.17 11.7414H192.213L186.782 30.5967H181.183Z" fill="#CACACA"/>
<path d="M17.9342 34.582C27.8389 34.582 35.8684 26.85 35.8684 17.3121C35.8684 7.77411 27.8389 0.042107 17.9342 0.0421068C8.02945 0.0421067 3.19678e-07 7.77418 2.05941e-07 17.3121C9.22034e-08 26.85 8.02938 34.582 17.9342 34.582ZM31.2402 17.3121L4.62818 17.3121C4.62818 10.2296 10.5805 4.49887 17.9342 4.49887C25.289 4.49887 31.2402 10.2308 31.2402 17.3121Z" fill="#CACACA"/>
</svg>
