<svg width="56" height="56" viewBox="0 0 56 56" fill="none" xmlns="http://www.w3.org/2000/svg">
<g clip-path="url(#clip0_2252_9252)">
<path d="M48.8474 13.6054L35.7227 0.480703C35.4164 0.174234 34.9982 0 34.5625 0H11.5938C8.87983 0 6.67188 2.20795 6.67188 4.92188V51.0781C6.67188 53.792 8.87983 56 11.5938 56H44.4062C47.1202 56 49.3281 53.792 49.3281 51.0781V14.7656C49.3281 14.3183 49.1403 13.8982 48.8474 13.6054ZM36.2031 5.60142L43.7267 13.125H37.8438C36.9391 13.125 36.2031 12.389 36.2031 11.4844V5.60142ZM44.4062 52.7188H11.5938C10.6891 52.7188 9.95312 51.9828 9.95312 51.0781V4.92188C9.95312 4.01723 10.6891 3.28125 11.5938 3.28125H32.9219V11.4844C32.9219 14.1983 35.1298 16.4062 37.8438 16.4062H46.0469V51.0781C46.0469 51.9828 45.3109 52.7188 44.4062 52.7188Z" fill="#DA980A"/>
<path d="M37.8438 23.1875H18.1562C17.2502 23.1875 16.5156 23.9221 16.5156 24.8281C16.5156 25.7342 17.2502 26.4688 18.1562 26.4688H37.8438C38.7498 26.4688 39.4844 25.7342 39.4844 24.8281C39.4844 23.9221 38.7498 23.1875 37.8438 23.1875Z" fill="#DA980A"/>
<path d="M37.8438 29.75H18.1562C17.2502 29.75 16.5156 30.4846 16.5156 31.3906C16.5156 32.2967 17.2502 33.0312 18.1562 33.0312H37.8438C38.7498 33.0312 39.4844 32.2967 39.4844 31.3906C39.4844 30.4846 38.7498 29.75 37.8438 29.75Z" fill="#DA980A"/>
<path d="M37.8438 36.3125H18.1562C17.2502 36.3125 16.5156 37.0471 16.5156 37.9531C16.5156 38.8592 17.2502 39.5938 18.1562 39.5938H37.8438C38.7498 39.5938 39.4844 38.8592 39.4844 37.9531C39.4844 37.0471 38.7498 36.3125 37.8438 36.3125Z" fill="#DA980A"/>
<path d="M31.2812 42.875H18.1562C17.2502 42.875 16.5156 43.6096 16.5156 44.5156C16.5156 45.4217 17.2502 46.1562 18.1562 46.1562H31.2812C32.1873 46.1562 32.9219 45.4217 32.9219 44.5156C32.9219 43.6096 32.1873 42.875 31.2812 42.875Z" fill="#DA980A"/>
</g>
<defs>
<clipPath id="clip0_2252_9252">
<rect width="56" height="56" fill="white"/>
</clipPath>
</defs>
</svg>
