<svg width="70" height="38" viewBox="0 0 70 38" fill="none" xmlns="http://www.w3.org/2000/svg">
<circle cx="3.27223" cy="34.6858" r="3.27223" transform="rotate(-90 3.27223 34.6858)" fill="#DA9A0A"/>
<circle cx="3.27198" cy="18.979" r="3.27223" transform="rotate(-90 3.27198 18.979)" fill="#DA9A0A"/>
<circle cx="3.27198" cy="3.27245" r="3.27223" transform="rotate(-90 3.27198 3.27245)" fill="#DA9A0A"/>
<circle cx="18.9788" cy="34.6858" r="3.27223" transform="rotate(-90 18.9788 34.6858)" fill="#DA9A0A"/>
<circle cx="18.9788" cy="18.979" r="3.27223" transform="rotate(-90 18.9788 18.979)" fill="#DA9A0A"/>
<circle cx="18.9788" cy="3.27245" r="3.27223" transform="rotate(-90 18.9788 3.27245)" fill="#DA9A0A"/>
<circle cx="34.6851" cy="34.6858" r="3.27223" transform="rotate(-90 34.6851 34.6858)" fill="#DA9A0A"/>
<circle cx="34.6851" cy="18.979" r="3.27223" transform="rotate(-90 34.6851 18.979)" fill="#DA9A0A"/>
<circle cx="34.6851" cy="3.27245" r="3.27223" transform="rotate(-90 34.6851 3.27245)" fill="#DA9A0A"/>
<circle cx="50.3919" cy="34.6858" r="3.27223" transform="rotate(-90 50.3919 34.6858)" fill="#DA9A0A"/>
<circle cx="50.3919" cy="18.979" r="3.27223" transform="rotate(-90 50.3919 18.979)" fill="#DA9A0A"/>
<circle cx="50.3919" cy="3.27245" r="3.27223" transform="rotate(-90 50.3919 3.27245)" fill="#DA9A0A"/>
<circle cx="66.0986" cy="34.6858" r="3.27223" transform="rotate(-90 66.0986 34.6858)" fill="#DA9A0A"/>
<circle cx="66.0986" cy="18.979" r="3.27223" transform="rotate(-90 66.0986 18.979)" fill="#DA9A0A"/>
<circle cx="66.0986" cy="3.27245" r="3.27223" transform="rotate(-90 66.0986 3.27245)" fill="#DA9A0A"/>
</svg>
