<svg width="75" height="58" viewBox="0 0 75 58" fill="none" xmlns="http://www.w3.org/2000/svg">
<circle cx="2.43407" cy="54.794" r="2.43407" transform="rotate(-90 2.43407 54.794)" fill="#DA9A0A"/>
<circle cx="2.43407" cy="37.3406" r="2.43407" transform="rotate(-90 2.43407 37.3406)" fill="#DA9A0A"/>
<circle cx="2.43407" cy="19.8873" r="2.43407" transform="rotate(-90 2.43407 19.8873)" fill="#DA9A0A"/>
<circle cx="2.43407" cy="2.43398" r="2.43407" transform="rotate(-90 2.43407 2.43398)" fill="#DA9A0A"/>
<circle cx="19.8874" cy="54.794" r="2.43407" transform="rotate(-90 19.8874 54.794)" fill="#DA9A0A"/>
<circle cx="19.8874" cy="37.3406" r="2.43407" transform="rotate(-90 19.8874 37.3406)" fill="#DA9A0A"/>
<circle cx="19.8874" cy="19.8873" r="2.43407" transform="rotate(-90 19.8874 19.8873)" fill="#DA9A0A"/>
<circle cx="19.8874" cy="2.43398" r="2.43407" transform="rotate(-90 19.8874 2.43398)" fill="#DA9A0A"/>
<circle cx="37.3408" cy="54.794" r="2.43407" transform="rotate(-90 37.3408 54.794)" fill="#DA9A0A"/>
<circle cx="37.3408" cy="37.3406" r="2.43407" transform="rotate(-90 37.3408 37.3406)" fill="#DA9A0A"/>
<circle cx="37.3408" cy="19.8873" r="2.43407" transform="rotate(-90 37.3408 19.8873)" fill="#DA9A0A"/>
<circle cx="37.3408" cy="2.43398" r="2.43407" transform="rotate(-90 37.3408 2.43398)" fill="#DA9A0A"/>
<circle cx="54.7942" cy="54.794" r="2.43407" transform="rotate(-90 54.7942 54.794)" fill="#DA9A0A"/>
<circle cx="54.7942" cy="37.3406" r="2.43407" transform="rotate(-90 54.7942 37.3406)" fill="#DA9A0A"/>
<circle cx="54.7942" cy="19.8873" r="2.43407" transform="rotate(-90 54.7942 19.8873)" fill="#DA9A0A"/>
<circle cx="54.7942" cy="2.43398" r="2.43407" transform="rotate(-90 54.7942 2.43398)" fill="#DA9A0A"/>
<circle cx="72.2475" cy="54.794" r="2.43407" transform="rotate(-90 72.2475 54.794)" fill="#DA9A0A"/>
<circle cx="72.2475" cy="37.3406" r="2.43407" transform="rotate(-90 72.2475 37.3406)" fill="#DA9A0A"/>
<circle cx="72.2475" cy="19.8873" r="2.43407" transform="rotate(-90 72.2475 19.8873)" fill="#DA9A0A"/>
<circle cx="72.2475" cy="2.43398" r="2.43407" transform="rotate(-90 72.2475 2.43398)" fill="#DA9A0A"/>
</svg>
