<svg width="80" height="80" viewBox="0 0 80 80" fill="none" xmlns="http://www.w3.org/2000/svg">
<g id="groups">
<mask id="mask0_835_89071" style="mask-type:alpha" maskUnits="userSpaceOnUse" x="0" y="0" width="80" height="80">
<rect id="Bounding box" width="80" height="80" fill="#D9D9D9"/>
</mask>
<g mask="url(#mask0_835_89071)">
<path id="groups_2" d="M0 60V54.75C0 52.3056 1.23667 50.3467 3.71 48.8733C6.18111 47.4022 9.38889 46.6667 13.3333 46.6667C14.0556 46.6667 14.75 46.68 15.4167 46.7067C16.0833 46.7356 16.7222 46.8056 17.3333 46.9167C16.5556 48.0278 15.9722 49.2222 15.5833 50.5C15.1944 51.7778 15 53.1389 15 54.5833V60H0ZM20 60V54.5833C20 50.9722 21.8478 48.0556 25.5433 45.8333C29.2367 43.6111 34.0556 42.5 40 42.5C46 42.5 50.8333 43.6111 54.5 45.8333C58.1667 48.0556 60 50.9722 60 54.5833V60H20ZM65 60V54.5833C65 53.1389 64.8189 51.7778 64.4567 50.5C64.0967 49.2222 63.5556 48.0278 62.8333 46.9167C63.4444 46.8056 64.07 46.7356 64.71 46.7067C65.3478 46.68 66 46.6667 66.6667 46.6667C70.6667 46.6667 73.8889 47.4022 76.3333 48.8733C78.7778 50.3467 80 52.3056 80 54.75V60H65ZM40 49.1667C36.8333 49.1667 34 49.5833 31.5 50.4167C29 51.25 27.5278 52.2222 27.0833 53.3333H53C52.5 52.2222 51.0133 51.25 48.54 50.4167C46.0689 49.5833 43.2222 49.1667 40 49.1667ZM13.3333 43.3333C11.5 43.3333 9.93111 42.68 8.62667 41.3733C7.32 40.0689 6.66667 38.5 6.66667 36.6667C6.66667 34.7778 7.32 33.1944 8.62667 31.9167C9.93111 30.6389 11.5 30 13.3333 30C15.2222 30 16.8056 30.6389 18.0833 31.9167C19.3611 33.1944 20 34.7778 20 36.6667C20 38.5 19.3611 40.0689 18.0833 41.3733C16.8056 42.68 15.2222 43.3333 13.3333 43.3333ZM66.6667 43.3333C64.8333 43.3333 63.2633 42.68 61.9567 41.3733C60.6522 40.0689 60 38.5 60 36.6667C60 34.7778 60.6522 33.1944 61.9567 31.9167C63.2633 30.6389 64.8333 30 66.6667 30C68.5556 30 70.1389 30.6389 71.4167 31.9167C72.6944 33.1944 73.3333 34.7778 73.3333 36.6667C73.3333 38.5 72.6944 40.0689 71.4167 41.3733C70.1389 42.68 68.5556 43.3333 66.6667 43.3333ZM40 40C37.2222 40 34.8611 39.0278 32.9167 37.0833C30.9722 35.1389 30 32.7778 30 30C30 27.1667 30.9722 24.7911 32.9167 22.8733C34.8611 20.9578 37.2222 20 40 20C42.8333 20 45.2078 20.9578 47.1233 22.8733C49.0411 24.7911 50 27.1667 50 30C50 32.7778 49.0411 35.1389 47.1233 37.0833C45.2078 39.0278 42.8333 40 40 40ZM40 26.6667C39.0556 26.6667 38.2644 26.9856 37.6267 27.6233C36.9867 28.2633 36.6667 29.0556 36.6667 30C36.6667 30.9444 36.9867 31.7356 37.6267 32.3733C38.2644 33.0133 39.0556 33.3333 40 33.3333C40.9444 33.3333 41.7367 33.0133 42.3767 32.3733C43.0144 31.7356 43.3333 30.9444 43.3333 30C43.3333 29.0556 43.0144 28.2633 42.3767 27.6233C41.7367 26.9856 40.9444 26.6667 40 26.6667Z" fill="white"/>
</g>
</g>
</svg>
