<svg width="48" height="49" viewBox="0 0 48 49" fill="none" xmlns="http://www.w3.org/2000/svg">
<circle cx="24" cy="24.8297" r="24" fill="url(#paint0_linear_581_22872)"/>
<path d="M19.4603 32.1698H17.5402C14.6002 31.9598 13.2803 29.6998 13.2803 27.6898C13.2803 25.6798 14.6002 23.4098 17.4902 23.2098C17.9002 23.1698 18.2602 23.4898 18.2902 23.9098C18.3202 24.3198 18.0103 24.6798 17.5903 24.7098C15.6503 24.8498 14.7803 26.3098 14.7803 27.6998C14.7803 29.0898 15.6503 30.5498 17.5903 30.6898H19.4603C19.8703 30.6898 20.2103 31.0298 20.2103 31.4398C20.2103 31.8498 19.8703 32.1698 19.4603 32.1698Z" fill="white"/>
<path d="M28.6699 32.1697C28.6499 32.1697 28.6399 32.1697 28.6199 32.1697C28.2099 32.1697 27.8299 31.8297 27.8299 31.4197C27.8299 30.9897 28.1499 30.6697 28.5699 30.6697C29.7999 30.6697 30.8999 30.2397 31.7599 29.4697C33.3199 28.1097 33.4199 26.1497 32.9999 24.7697C32.5799 23.3997 31.4099 21.8297 29.3699 21.5797C29.0399 21.5397 28.7799 21.2897 28.7199 20.9597C28.3199 18.5597 27.0299 16.8997 25.0699 16.2997C23.0499 15.6697 20.6899 16.2897 19.2199 17.8297C17.7899 19.3197 17.4599 21.4097 18.2899 23.7097C18.4299 24.0997 18.2299 24.5297 17.8399 24.6697C17.4499 24.8097 17.0199 24.6097 16.8799 24.2197C15.8699 21.3997 16.3299 18.6997 18.1399 16.7997C19.9899 14.8597 22.9599 14.0897 25.5099 14.8697C27.8499 15.5897 29.4999 17.5197 30.0999 20.1997C32.1399 20.6597 33.7799 22.2097 34.4299 24.3497C35.1399 26.6797 34.4999 29.0797 32.7499 30.5997C31.6399 31.5997 30.1899 32.1697 28.6699 32.1697Z" fill="white"/>
<path d="M24 35.1097C21.99 35.1097 20.11 34.0397 19.08 32.3097C18.97 32.1397 18.86 31.9397 18.77 31.7197C18.43 31.0097 18.25 30.1997 18.25 29.3597C18.25 26.1897 20.83 23.6097 24 23.6097C27.17 23.6097 29.75 26.1897 29.75 29.3597C29.75 30.2097 29.57 31.0097 29.21 31.7497C29.13 31.9397 29.02 32.1397 28.9 32.3297C27.89 34.0397 26.01 35.1097 24 35.1097ZM24 25.1097C21.66 25.1097 19.75 27.0197 19.75 29.3597C19.75 29.9797 19.88 30.5597 20.13 31.0897C20.21 31.2597 20.28 31.3997 20.36 31.5297C21.12 32.8197 22.51 33.6097 23.99 33.6097C25.47 33.6097 26.86 32.8197 27.61 31.5497C27.7 31.3997 27.78 31.2597 27.84 31.1197C28.11 30.5697 28.24 29.9897 28.24 29.3697C28.25 27.0197 26.34 25.1097 24 25.1097Z" fill="white"/>
<path d="M23.4299 31.0996C23.2399 31.0996 23.0499 31.0296 22.8999 30.8796L21.9099 29.8896C21.6199 29.5996 21.6199 29.1196 21.9099 28.8296C22.1999 28.5396 22.6799 28.5396 22.9699 28.8296L23.4499 29.3096L25.0499 27.8296C25.3599 27.5496 25.8299 27.5695 26.1099 27.8695C26.3899 28.1695 26.3699 28.6496 26.0699 28.9296L23.9399 30.8996C23.7899 31.0296 23.6099 31.0996 23.4299 31.0996Z" fill="white"/>
<defs>
<linearGradient id="paint0_linear_581_22872" x1="2.4" y1="0.029711" x2="36" y2="48.8297" gradientUnits="userSpaceOnUse">
<stop stop-color="#4FB337"/>
<stop offset="1" stop-color="#9AAE36"/>
</linearGradient>
</defs>
</svg>
