<svg width="48" height="49" viewBox="0 0 48 49" fill="none" xmlns="http://www.w3.org/2000/svg">
<circle cx="24" cy="24.8297" r="24" fill="url(#paint0_linear_581_22822)"/>
<path d="M23.9999 35.5897C22.9099 35.5897 21.8299 35.2697 20.9799 34.6397L16.6799 31.4297C15.5399 30.5797 14.6499 28.8097 14.6499 27.3897V19.9497C14.6499 18.4097 15.7799 16.7697 17.2299 16.2297L22.2199 14.3597C23.2099 13.9897 24.7699 13.9897 25.7599 14.3597L30.7599 16.2297C32.2099 16.7697 33.3399 18.4097 33.3399 19.9497V27.3797C33.3399 28.7997 32.4499 30.5697 31.3099 31.4197L27.0099 34.6297C26.1699 35.2697 25.0899 35.5897 23.9999 35.5897ZM22.7499 15.7697L17.7599 17.6397C16.8999 17.9597 16.1499 19.0397 16.1499 19.9597V27.3897C16.1499 28.3397 16.8199 29.6697 17.5699 30.2297L21.8699 33.4397C23.0199 34.2997 24.9699 34.2997 26.1199 33.4397L30.4199 30.2297C31.1799 29.6597 31.8399 28.3297 31.8399 27.3897V19.9497C31.8399 19.0397 31.0899 17.9597 30.2299 17.6297L25.2399 15.7597C24.5799 15.5197 23.4199 15.5197 22.7499 15.7697Z" fill="white"/>
<path d="M24 26.0797C22.48 26.0797 21.25 24.8497 21.25 23.3297C21.25 21.8097 22.48 20.5797 24 20.5797C25.52 20.5797 26.75 21.8097 26.75 23.3297C26.75 24.8497 25.52 26.0797 24 26.0797ZM24 22.0797C23.31 22.0797 22.75 22.6397 22.75 23.3297C22.75 24.0197 23.31 24.5797 24 24.5797C24.69 24.5797 25.25 24.0197 25.25 23.3297C25.25 22.6397 24.69 22.0797 24 22.0797Z" fill="white"/>
<path d="M24 29.0797C23.59 29.0797 23.25 28.7397 23.25 28.3297V25.3297C23.25 24.9197 23.59 24.5797 24 24.5797C24.41 24.5797 24.75 24.9197 24.75 25.3297V28.3297C24.75 28.7397 24.41 29.0797 24 29.0797Z" fill="white"/>
<defs>
<linearGradient id="paint0_linear_581_22822" x1="2.4" y1="0.029711" x2="36" y2="48.8297" gradientUnits="userSpaceOnUse">
<stop stop-color="#FD9E59"/>
<stop offset="1" stop-color="#F8AD76"/>
</linearGradient>
</defs>
</svg>
