<svg width="48" height="49" viewBox="0 0 48 49" fill="none" xmlns="http://www.w3.org/2000/svg">
<circle cx="24" cy="24.8297" r="24" fill="url(#paint0_linear_581_22858)"/>
<path d="M16.9999 34.6997C16.2599 34.6997 15.5299 34.4197 14.9699 33.8597C14.4299 33.3197 14.1299 32.5997 14.1299 31.8297C14.1299 31.0597 14.4299 30.3397 14.9699 29.7997L27.9699 16.7997C29.0899 15.6797 30.9099 15.6797 32.0299 16.7997C32.5699 17.3397 32.8699 18.0597 32.8699 18.8297C32.8699 19.5997 32.5699 20.3197 32.0299 20.8597L19.0299 33.8597C18.4699 34.4197 17.7399 34.6997 16.9999 34.6997ZM29.9999 17.4597C29.6499 17.4597 29.2999 17.5897 29.0299 17.8597L16.0299 30.8597C15.7699 31.1197 15.6299 31.4597 15.6299 31.8297C15.6299 32.1997 15.7699 32.5397 16.0299 32.7997C16.5599 33.3297 17.4399 33.3297 17.9699 32.7997L30.9699 19.7997C31.2299 19.5397 31.3699 19.1997 31.3699 18.8297C31.3699 18.4597 31.2299 18.1197 30.9699 17.8597C30.6999 17.5897 30.3499 17.4597 29.9999 17.4597Z" fill="white"/>
<path d="M30.01 22.5697C29.82 22.5697 29.63 22.4997 29.48 22.3497L26.48 19.3497C26.19 19.0597 26.19 18.5797 26.48 18.2897C26.77 17.9997 27.25 17.9997 27.54 18.2897L30.54 21.2897C30.83 21.5797 30.83 22.0597 30.54 22.3497C30.39 22.4997 30.2 22.5697 30.01 22.5697Z" fill="white"/>
<path d="M22.0001 18.3297C21.9501 18.3297 21.9101 18.3197 21.8601 18.3097L20.5001 17.9097L19.1401 18.3097C18.9601 18.3597 18.7701 18.3097 18.6501 18.1797C18.5201 18.0497 18.4701 17.8697 18.5201 17.6897L18.9201 16.3297L18.5201 14.9697C18.4701 14.7897 18.5201 14.5997 18.6501 14.4797C18.7801 14.3497 18.9701 14.2997 19.1401 14.3497L20.5001 14.7497L21.8601 14.3497C22.0401 14.2997 22.2201 14.3497 22.3501 14.4797C22.4801 14.6097 22.5301 14.7997 22.4801 14.9697L22.0801 16.3297L22.4801 17.6897C22.5301 17.8697 22.4801 18.0597 22.3501 18.1797C22.2601 18.2797 22.1301 18.3297 22.0001 18.3297ZM20.5001 16.8897C20.5501 16.8897 20.5901 16.8997 20.6401 16.9097L21.2601 17.0897L21.0801 16.4697C21.0501 16.3797 21.0501 16.2797 21.0801 16.1897L21.2601 15.5697L20.6401 15.7497C20.5501 15.7797 20.4501 15.7797 20.3601 15.7497L19.7401 15.5697L19.9201 16.1897C19.9501 16.2797 19.9501 16.3797 19.9201 16.4697L19.7401 17.0897L20.3601 16.9097C20.4101 16.8997 20.4501 16.8897 20.5001 16.8897Z" fill="white"/>
<path d="M18.0001 24.3297C17.9501 24.3297 17.9101 24.3197 17.8601 24.3097L16.5001 23.9097L15.1401 24.3097C14.9601 24.3597 14.7801 24.3097 14.6501 24.1797C14.5201 24.0497 14.4701 23.8597 14.5201 23.6897L14.9201 22.3297L14.5201 20.9697C14.4701 20.7897 14.5201 20.5997 14.6501 20.4797C14.7801 20.3597 14.9701 20.2997 15.1401 20.3497L16.5001 20.7497L17.8601 20.3497C18.0301 20.2997 18.2201 20.3497 18.3501 20.4797C18.4801 20.6097 18.5301 20.7997 18.4801 20.9697L18.0801 22.3297L18.4801 23.6897C18.5301 23.8697 18.4801 24.0597 18.3501 24.1797C18.2601 24.2797 18.1301 24.3297 18.0001 24.3297ZM16.5001 22.8897C16.5501 22.8897 16.5901 22.8997 16.6401 22.9097L17.2601 23.0897L17.0801 22.4697C17.0501 22.3797 17.0501 22.2797 17.0801 22.1897L17.2601 21.5697L16.6401 21.7497C16.5501 21.7797 16.4501 21.7797 16.3601 21.7497L15.7401 21.5697L15.9201 22.1897C15.9501 22.2797 15.9501 22.3797 15.9201 22.4697L15.7401 23.0897L16.3601 22.9097C16.4101 22.8997 16.4501 22.8897 16.5001 22.8897Z" fill="white"/>
<path d="M33.0001 29.3297C32.9501 29.3297 32.9101 29.3197 32.8601 29.3097L31.5001 28.9097L30.1401 29.3097C29.9601 29.3597 29.7801 29.3097 29.6501 29.1797C29.5201 29.0497 29.4701 28.8597 29.5201 28.6897L29.9201 27.3297L29.5201 25.9697C29.4701 25.7897 29.5201 25.5997 29.6501 25.4797C29.7801 25.3597 29.9701 25.2997 30.1401 25.3497L31.5001 25.7497L32.8601 25.3497C33.0301 25.2997 33.2201 25.3497 33.3501 25.4797C33.4801 25.6097 33.5301 25.7997 33.4801 25.9697L33.0801 27.3297L33.4801 28.6897C33.5301 28.8697 33.4801 29.0597 33.3501 29.1797C33.2601 29.2797 33.1301 29.3297 33.0001 29.3297ZM31.5001 27.8897C31.5501 27.8897 31.5901 27.8997 31.6401 27.9097L32.2601 28.0897L32.0801 27.4697C32.0501 27.3797 32.0501 27.2797 32.0801 27.1897L32.2601 26.5697L31.6401 26.7497C31.5501 26.7797 31.4501 26.7797 31.3601 26.7497L30.7401 26.5697L30.9201 27.1897C30.9501 27.2797 30.9501 27.3797 30.9201 27.4697L30.7401 28.0897L31.3601 27.9097C31.4101 27.8997 31.4501 27.8897 31.5001 27.8897Z" fill="white"/>
<defs>
<linearGradient id="paint0_linear_581_22858" x1="2.4" y1="0.029711" x2="36" y2="48.8297" gradientUnits="userSpaceOnUse">
<stop stop-color="#FB455B"/>
<stop offset="1" stop-color="#F77AFA"/>
</linearGradient>
</defs>
</svg>
