<svg width="48" height="48" viewBox="0 0 48 48" fill="none" xmlns="http://www.w3.org/2000/svg">
<g clip-path="url(#clip0_696_1290)">
<path d="M17.4543 19.6364C18.6593 19.6364 19.6361 18.6595 19.6361 17.4545C19.6361 16.2496 18.6593 15.2727 17.4543 15.2727C16.2493 15.2727 15.2725 16.2496 15.2725 17.4545C15.2725 18.6595 16.2493 19.6364 17.4543 19.6364Z" fill="white"/>
<path d="M19.6361 20.7273H15.2725V32.7273H19.6361V20.7273Z" fill="white"/>
<path d="M24 0C10.7452 0 0 10.7452 0 24C0 37.2548 10.7452 48 24 48C37.2548 48 48 37.2548 48 24C48 10.7452 37.2548 0 24 0ZM24 45.8182C11.9501 45.8182 2.18184 36.0499 2.18184 24C2.18184 11.9501 11.9501 2.18184 24 2.18184C36.0499 2.18184 45.8182 11.9501 45.8182 24C45.8182 36.0499 36.0499 45.8182 24 45.8182Z" fill="white"/>
<path d="M29.8474 20.7273C26.5747 20.7273 26.182 22.6691 26.182 22.6691V20.7273H21.8184V32.7273H26.182V26.1819C26.182 26.1819 26.182 24 28.0365 24C29.1274 24 29.4547 24.9709 29.4547 26.1819V32.7273H33.8183V26.1819C33.8183 22.7673 32.3347 20.7273 29.8474 20.7273Z" fill="white"/>
</g>
<defs>
<clipPath id="clip0_696_1290">
<rect width="48" height="48" fill="white"/>
</clipPath>
</defs>
</svg>
