<svg xmlns="http://www.w3.org/2000/svg" width="33" height="32" viewBox="0 0 33 32" fill="none">
    <path d="M16.6111 27.3733C13.5045 27.3733 10.3978 26.88 7.45113 25.8933C6.33113 25.5066 5.47779 24.72 5.10446 23.6933C4.71779 22.6666 4.85113 21.5333 5.46446 20.52L6.99779 17.9733C7.31779 17.44 7.61113 16.3733 7.61113 15.7466V11.8933C7.61113 6.93331 11.6511 2.89331 16.6111 2.89331C21.5711 2.89331 25.6111 6.93331 25.6111 11.8933V15.7466C25.6111 16.36 25.9045 17.44 26.2245 17.9866L27.7445 20.52C28.3178 21.48 28.4245 22.64 28.0378 23.6933C27.6511 24.7466 26.8111 25.5466 25.7578 25.8933C22.8245 26.88 19.7178 27.3733 16.6111 27.3733ZM16.6111 4.89331C12.7578 4.89331 9.61113 8.02664 9.61113 11.8933V15.7466C9.61113 16.72 9.21113 18.16 8.71779 19L7.18446 21.5466C6.89113 22.04 6.81113 22.56 6.98446 23C7.14446 23.4533 7.54446 23.8 8.09113 23.9866C13.6645 25.8533 19.5711 25.8533 25.1445 23.9866C25.6245 23.8266 25.9978 23.4666 26.1711 22.9866C26.3445 22.5066 26.3045 21.9866 26.0378 21.5466L24.5045 19C23.9978 18.1333 23.6111 16.7066 23.6111 15.7333V11.8933C23.6111 8.02664 20.4778 4.89331 16.6111 4.89331Z" fill="black" fill-opacity="0.87"/>
    <path d="M19.0902 5.25324C18.9968 5.25324 18.9035 5.23991 18.8102 5.21324C18.4235 5.10658 18.0502 5.02658 17.6902 4.97324C16.5568 4.82658 15.4635 4.90658 14.4368 5.21324C14.0635 5.33324 13.6635 5.21324 13.4102 4.93324C13.1568 4.65324 13.0768 4.25324 13.2235 3.89324C13.7702 2.49324 15.1035 1.57324 16.6235 1.57324C18.1435 1.57324 19.4768 2.47991 20.0235 3.89324C20.1568 4.25324 20.0902 4.65324 19.8368 4.93324C19.6368 5.14658 19.3568 5.25324 19.0902 5.25324Z" fill="black" fill-opacity="0.87"/>
    <path d="M16.6113 30.4133C15.2913 30.4133 14.0113 29.88 13.078 28.9467C12.1447 28.0133 11.6113 26.7333 11.6113 25.4133H13.6113C13.6113 26.2 13.9313 26.9733 14.4913 27.5333C15.0513 28.0933 15.8247 28.4133 16.6113 28.4133C18.2647 28.4133 19.6113 27.0667 19.6113 25.4133H21.6113C21.6113 28.1733 19.3713 30.4133 16.6113 30.4133Z" fill="black" fill-opacity="0.87"/>
</svg>