<svg width="199" height="48" viewBox="0 0 199 48" fill="none" xmlns="http://www.w3.org/2000/svg">
<path d="M36.9069 11.1631C36.4746 10.7309 36.0424 10.2987 35.6102 9.86648C34.3135 8.48337 32.9304 7.10027 31.2016 6.23583C29.2133 5.1985 27.0523 5.45783 24.8911 5.45783C21.6063 5.45783 13.3941 5.45783 8.55322 5.45783L11.8381 9.86648C17.8027 9.86648 27.1387 9.86648 31.4609 9.86648C33.2762 9.86648 34.8322 10.2123 36.3018 11.1631C36.5611 11.2496 36.8204 11.2496 36.9069 11.1631Z" fill="#66C61C"/>
<path d="M40.5373 18.2516C40.1051 17.8194 39.6729 17.3872 39.2407 16.955C37.944 15.5719 36.5609 14.1888 34.832 13.3243C32.8438 12.287 30.6827 12.5463 28.5216 12.5463C25.669 12.5463 18.8399 12.5463 13.999 12.5463L17.2839 16.955C23.1621 16.955 31.2014 16.955 35.1778 16.955C36.9931 16.955 38.5491 17.3007 40.0187 18.2516C40.1916 18.3381 40.3644 18.3381 40.5373 18.2516Z" fill="#4CA30D"/>
<path d="M44.6001 25.1669C44.1678 24.7347 43.7356 24.3025 43.3034 23.8703C42.0067 22.4872 40.6236 21.104 38.8948 20.2396C36.9065 19.2023 34.7454 19.4616 32.5843 19.4616C29.9046 19.4616 24.0264 19.4616 19.272 19.4616L22.5568 23.8703C28.2621 23.8703 35.5234 23.8703 39.1541 23.8703C40.9694 23.8703 42.5254 24.216 43.995 25.1669C44.2543 25.2534 44.4272 25.3398 44.6001 25.1669Z" fill="#3B7C0F"/>
<path d="M8.20703 36.8369C8.63925 37.2691 9.07147 37.7013 9.50369 38.1335C10.8004 39.5166 12.1834 40.8997 13.9123 41.7642C15.9005 42.8015 18.0616 42.5422 20.2227 42.5422H36.5607L33.2758 38.1335C27.3112 38.1335 17.9752 38.1335 13.653 38.1335C11.8377 38.1335 10.2817 37.7878 8.81214 36.8369C8.5528 36.7504 8.37992 36.7504 8.20703 36.8369Z" fill="#66C61C"/>
<path d="M4.57666 29.7487C5.00888 30.1809 5.4411 30.6131 5.87332 31.0453C7.16998 32.4284 8.55308 33.8116 10.282 34.676C12.2702 35.7133 14.4313 35.454 16.5924 35.454H31.115L27.8301 31.0453C21.9519 31.0453 13.9126 31.0453 9.93619 31.0453C8.12086 31.0453 6.56486 30.6996 5.09532 29.7487C4.92243 29.6622 4.74955 29.6622 4.57666 29.7487Z" fill="#4CA30D"/>
<path d="M0.600098 22.7465C1.03232 23.1787 1.46454 23.6109 1.89676 24.0431C3.19342 25.4262 4.57653 26.8094 6.30541 27.6738C8.29362 28.7111 10.4547 28.4518 12.6158 28.4518H25.9282L22.6433 24.0431C16.938 24.0431 9.67672 24.0431 6.04607 24.0431C4.23075 24.0431 2.67475 23.6974 1.2052 22.7465C0.945871 22.66 0.772986 22.66 0.600098 22.7465Z" fill="#3B7C0F"/>
<path d="M54.5322 14.008V34H58.9282V25.74H67.3002V22.324H58.9282V17.704H68.5882V14.008H54.5322Z" fill="#101828"/>
<path d="M79.6139 25.208H73.1459C73.1645 24.928 73.2205 24.6107 73.3139 24.256C73.4259 23.9013 73.6032 23.5653 73.8459 23.248C74.1072 22.9307 74.4432 22.6693 74.8539 22.464C75.2832 22.24 75.8152 22.128 76.4499 22.128C77.4205 22.128 78.1392 22.3893 78.6059 22.912C79.0912 23.4347 79.4272 24.2 79.6139 25.208ZM73.1459 27.728H83.5899C83.6645 26.608 83.5712 25.5347 83.3099 24.508C83.0485 23.4813 82.6192 22.5667 82.0219 21.764C81.4432 20.9613 80.6966 20.3267 79.7819 19.86C78.8672 19.3747 77.7939 19.132 76.5619 19.132C75.4605 19.132 74.4526 19.328 73.5379 19.72C72.6419 20.112 71.8672 20.6533 71.2139 21.344C70.5605 22.016 70.0565 22.8187 69.7019 23.752C69.3472 24.6853 69.1699 25.6933 69.1699 26.776C69.1699 27.896 69.3379 28.9227 69.6739 29.856C70.0285 30.7893 70.5232 31.592 71.1579 32.264C71.7925 32.936 72.5672 33.4587 73.4819 33.832C74.3966 34.1867 75.4232 34.364 76.5619 34.364C78.2045 34.364 79.6045 33.9907 80.7619 33.244C81.9192 32.4973 82.7779 31.256 83.3379 29.52H79.8379C79.7072 29.968 79.3526 30.3973 78.7739 30.808C78.1952 31.2 77.5045 31.396 76.7019 31.396C75.5819 31.396 74.7232 31.1067 74.1259 30.528C73.5285 29.9493 73.2019 29.016 73.1459 27.728Z" fill="#101828"/>
<path d="M84.94 23.976C84.996 23.0427 85.2293 22.268 85.64 21.652C86.0507 21.036 86.5733 20.5413 87.208 20.168C87.8427 19.7947 88.552 19.5333 89.336 19.384C90.1387 19.216 90.9413 19.132 91.744 19.132C92.472 19.132 93.2093 19.188 93.956 19.3C94.7027 19.3933 95.384 19.5893 96 19.888C96.616 20.1867 97.12 20.6067 97.512 21.148C97.904 21.6707 98.1 22.3707 98.1 23.248V30.78C98.1 31.4333 98.1373 32.0587 98.212 32.656C98.2867 33.2533 98.4173 33.7013 98.604 34H94.572C94.4973 33.776 94.432 33.552 94.376 33.328C94.3387 33.0853 94.3107 32.8427 94.292 32.6C93.6573 33.2533 92.9107 33.7107 92.052 33.972C91.1933 34.2333 90.316 34.364 89.42 34.364C88.7293 34.364 88.0853 34.28 87.488 34.112C86.8907 33.944 86.368 33.6827 85.92 33.328C85.472 32.9733 85.1173 32.5253 84.856 31.984C84.6133 31.4427 84.492 30.7987 84.492 30.052C84.492 29.2307 84.632 28.5587 84.912 28.036C85.2107 27.4947 85.584 27.0653 86.032 26.748C86.4987 26.4307 87.0213 26.1973 87.6 26.048C88.1973 25.88 88.7947 25.7493 89.392 25.656C89.9893 25.5627 90.5773 25.488 91.156 25.432C91.7347 25.376 92.248 25.292 92.696 25.18C93.144 25.068 93.4987 24.9093 93.76 24.704C94.0213 24.48 94.1427 24.1627 94.124 23.752C94.124 23.3227 94.0493 22.9867 93.9 22.744C93.7693 22.4827 93.5827 22.2867 93.34 22.156C93.116 22.0067 92.8453 21.9133 92.528 21.876C92.2293 21.82 91.9027 21.792 91.548 21.792C90.764 21.792 90.148 21.96 89.7 22.296C89.252 22.632 88.9907 23.192 88.916 23.976H84.94ZM94.124 26.916C93.956 27.0653 93.7413 27.1867 93.48 27.28C93.2373 27.3547 92.9667 27.42 92.668 27.476C92.388 27.532 92.0893 27.5787 91.772 27.616C91.4547 27.6533 91.1373 27.7 90.82 27.756C90.5213 27.812 90.2227 27.8867 89.924 27.98C89.644 28.0733 89.392 28.204 89.168 28.372C88.9627 28.5213 88.7947 28.7173 88.664 28.96C88.5333 29.2027 88.468 29.5107 88.468 29.884C88.468 30.2387 88.5333 30.5373 88.664 30.78C88.7947 31.0227 88.972 31.2187 89.196 31.368C89.42 31.4987 89.6813 31.592 89.98 31.648C90.2787 31.704 90.5867 31.732 90.904 31.732C91.688 31.732 92.2947 31.6013 92.724 31.34C93.1533 31.0787 93.4707 30.7707 93.676 30.416C93.8813 30.0427 94.0027 29.6693 94.04 29.296C94.096 28.9227 94.124 28.624 94.124 28.4V26.916Z" fill="#101828"/>
<path d="M105.386 19.524V15.184H101.41V19.524H99.0021V22.184H101.41V30.724C101.41 31.452 101.531 32.04 101.774 32.488C102.017 32.936 102.343 33.2813 102.754 33.524C103.183 33.7667 103.669 33.9253 104.21 34C104.77 34.0933 105.358 34.14 105.974 34.14C106.366 34.14 106.767 34.1307 107.178 34.112C107.589 34.0933 107.962 34.056 108.298 34V30.92C108.111 30.9573 107.915 30.9853 107.71 31.004C107.505 31.0227 107.29 31.032 107.066 31.032C106.394 31.032 105.946 30.92 105.722 30.696C105.498 30.472 105.386 30.024 105.386 29.352V22.184H108.298V19.524H105.386Z" fill="#101828"/>
<path d="M109.35 14.008V34H113.326V26.412C113.326 24.9373 113.569 23.8827 114.054 23.248C114.539 22.5947 115.323 22.268 116.406 22.268C117.358 22.268 118.021 22.5667 118.394 23.164C118.767 23.7427 118.954 24.6293 118.954 25.824V34H122.93V25.096C122.93 24.2 122.846 23.388 122.678 22.66C122.529 21.9133 122.258 21.288 121.866 20.784C121.474 20.2613 120.933 19.86 120.242 19.58C119.57 19.2813 118.702 19.132 117.638 19.132C116.891 19.132 116.126 19.328 115.342 19.72C114.558 20.0933 113.914 20.7 113.41 21.54H113.326V14.008H109.35Z" fill="#101828"/>
<path d="M134.852 25.208H128.384C128.402 24.928 128.458 24.6107 128.552 24.256C128.664 23.9013 128.841 23.5653 129.084 23.248C129.345 22.9307 129.681 22.6693 130.092 22.464C130.521 22.24 131.053 22.128 131.688 22.128C132.658 22.128 133.377 22.3893 133.844 22.912C134.329 23.4347 134.665 24.2 134.852 25.208ZM128.384 27.728H138.828C138.902 26.608 138.809 25.5347 138.548 24.508C138.286 23.4813 137.857 22.5667 137.26 21.764C136.681 20.9613 135.934 20.3267 135.02 19.86C134.105 19.3747 133.032 19.132 131.8 19.132C130.698 19.132 129.69 19.328 128.776 19.72C127.88 20.112 127.105 20.6533 126.452 21.344C125.798 22.016 125.294 22.8187 124.94 23.752C124.585 24.6853 124.408 25.6933 124.408 26.776C124.408 27.896 124.576 28.9227 124.912 29.856C125.266 30.7893 125.761 31.592 126.396 32.264C127.03 32.936 127.805 33.4587 128.72 33.832C129.634 34.1867 130.661 34.364 131.8 34.364C133.442 34.364 134.842 33.9907 136 33.244C137.157 32.4973 138.016 31.256 138.576 29.52H135.076C134.945 29.968 134.59 30.3973 134.012 30.808C133.433 31.2 132.742 31.396 131.94 31.396C130.82 31.396 129.961 31.1067 129.364 30.528C128.766 29.9493 128.44 29.016 128.384 27.728Z" fill="#101828"/>
<path d="M140.346 19.524V34H144.322V27.476C144.322 26.8227 144.387 26.216 144.518 25.656C144.648 25.096 144.863 24.6107 145.162 24.2C145.479 23.7707 145.89 23.4347 146.394 23.192C146.898 22.9493 147.514 22.828 148.242 22.828C148.484 22.828 148.736 22.8467 148.998 22.884C149.259 22.9027 149.483 22.9307 149.67 22.968V19.272C149.352 19.1787 149.063 19.132 148.802 19.132C148.298 19.132 147.812 19.2067 147.346 19.356C146.879 19.5053 146.44 19.72 146.03 20C145.619 20.2613 145.255 20.588 144.938 20.98C144.62 21.3533 144.368 21.764 144.182 22.212H144.126V19.524H140.346Z" fill="#101828"/>
<path d="M155.204 30.304V17.704H158.34C159.423 17.704 160.328 17.8627 161.056 18.18C161.803 18.4787 162.4 18.9173 162.848 19.496C163.296 20.0747 163.614 20.7747 163.8 21.596C164.006 22.3987 164.108 23.304 164.108 24.312C164.108 25.4133 163.968 26.3467 163.688 27.112C163.408 27.8773 163.035 28.5027 162.568 28.988C162.102 29.4547 161.57 29.7907 160.972 29.996C160.375 30.2013 159.759 30.304 159.124 30.304H155.204ZM150.808 14.008V34H159.432C160.963 34 162.288 33.748 163.408 33.244C164.547 32.7213 165.49 32.012 166.236 31.116C167.002 30.22 167.571 29.156 167.944 27.924C168.318 26.692 168.504 25.348 168.504 23.892C168.504 22.2307 168.271 20.784 167.804 19.552C167.356 18.32 166.722 17.2933 165.9 16.472C165.098 15.6507 164.136 15.0347 163.016 14.624C161.915 14.2133 160.72 14.008 159.432 14.008H150.808Z" fill="#101828"/>
<path d="M180.046 25.208H173.578C173.597 24.928 173.653 24.6107 173.746 24.256C173.858 23.9013 174.036 23.5653 174.278 23.248C174.54 22.9307 174.876 22.6693 175.286 22.464C175.716 22.24 176.248 22.128 176.882 22.128C177.853 22.128 178.572 22.3893 179.038 22.912C179.524 23.4347 179.86 24.2 180.046 25.208ZM173.578 27.728H184.022C184.097 26.608 184.004 25.5347 183.742 24.508C183.481 23.4813 183.052 22.5667 182.454 21.764C181.876 20.9613 181.129 20.3267 180.214 19.86C179.3 19.3747 178.226 19.132 176.994 19.132C175.893 19.132 174.885 19.328 173.97 19.72C173.074 20.112 172.3 20.6533 171.646 21.344C170.993 22.016 170.489 22.8187 170.134 23.752C169.78 24.6853 169.602 25.6933 169.602 26.776C169.602 27.896 169.77 28.9227 170.106 29.856C170.461 30.7893 170.956 31.592 171.59 32.264C172.225 32.936 173 33.4587 173.914 33.832C174.829 34.1867 175.856 34.364 176.994 34.364C178.637 34.364 180.037 33.9907 181.194 33.244C182.352 32.4973 183.21 31.256 183.77 29.52H180.27C180.14 29.968 179.785 30.3973 179.206 30.808C178.628 31.2 177.937 31.396 177.134 31.396C176.014 31.396 175.156 31.1067 174.558 30.528C173.961 29.9493 173.634 29.016 173.578 27.728Z" fill="#101828"/>
<path d="M193.549 34L198.449 19.524H194.501L191.449 29.408H191.393L188.34 19.524H184.169L189.124 34H193.549Z" fill="#101828"/>
</svg>
