<svg width="168" height="48" viewBox="0 0 168 48" fill="none" xmlns="http://www.w3.org/2000/svg">
<path fill-rule="evenodd" clip-rule="evenodd" d="M20.5653 3.4479C20.0603 3.34403 19.5394 3.34403 19.0343 3.4479C18.4505 3.56797 17.9287 3.86023 17.5139 4.09258L17.4008 4.15574L3.34133 11.9666C3.30247 11.9882 3.26241 12.0102 3.22137 12.0328C2.78224 12.2747 2.23009 12.5788 1.80607 13.0389C1.43948 13.4368 1.16205 13.9082 0.99234 14.4219C0.796045 15.016 0.798341 15.6464 0.800168 16.1477C0.800339 16.1946 0.800505 16.2403 0.800505 16.2847V31.7067C0.800505 31.7511 0.800339 31.7969 0.800168 31.8437C0.798341 32.3451 0.796045 32.9754 0.99234 33.5695C1.16205 34.0832 1.43948 34.5547 1.80607 34.9525C2.23009 35.4126 2.78224 35.7167 3.22137 35.9586C3.26241 35.9812 3.30247 36.0033 3.34134 36.0249L17.4008 43.8357L17.5139 43.8988C17.9287 44.1312 18.4505 44.4235 19.0343 44.5435C19.5394 44.6474 20.0603 44.6474 20.5653 44.5435C21.1491 44.4235 21.6709 44.1312 22.0857 43.8988L22.1988 43.8357L36.2583 36.0249C36.2755 36.0153 36.2929 36.0057 36.3105 35.9959C36.3327 35.9837 36.3553 35.9712 36.3782 35.9586C36.8174 35.7167 37.3695 35.4126 37.7935 34.9525C38.1601 34.5547 38.4376 34.0832 38.6073 33.5695C38.8036 32.9754 38.8013 32.3451 38.7994 31.8437C38.7993 31.7969 38.7991 31.7511 38.7991 31.7067V16.2847C38.7991 16.2403 38.7993 16.1946 38.7994 16.1477C38.8013 15.6464 38.8036 15.016 38.6073 14.4219C38.4376 13.9082 38.1601 13.4367 37.7935 13.0389C37.3695 12.5788 36.8174 12.2747 36.3782 12.0328L36.3767 12.032C36.3362 12.0097 36.2966 11.9879 36.2583 11.9666L22.1988 4.15574L22.0857 4.09257C21.6709 3.86022 21.1491 3.56797 20.5653 3.4479ZM19.2462 7.47742C19.5341 7.31746 19.6811 7.23664 19.7907 7.18376L19.7998 7.17941L19.8089 7.18376C19.9185 7.23664 20.0655 7.31746 20.3534 7.47742L32.9869 14.496L19.7997 21.8222L6.61265 14.4961L19.2462 7.47742ZM4.60036 17.725L17.8998 25.1136L17.8999 39.766L5.18671 32.7032C4.88281 32.5343 4.72765 32.4472 4.6188 32.3779L4.6096 32.372L4.60892 32.3611C4.60116 32.2323 4.60036 32.0543 4.60036 31.7067V17.725Z" fill="#101828"/>
<path d="M56.0906 30.3452H62.1386V33.9092H51.4736V14.9552H56.0906V30.3452Z" fill="#101828"/>
<path d="M66.3928 17.2772C65.5828 17.2772 64.9168 17.0432 64.3948 16.5752C63.8908 16.0892 63.6388 15.4952 63.6388 14.7932C63.6388 14.0732 63.8908 13.4792 64.3948 13.0112C64.9168 12.5252 65.5828 12.2822 66.3928 12.2822C67.1848 12.2822 67.8328 12.5252 68.3368 13.0112C68.8588 13.4792 69.1198 14.0732 69.1198 14.7932C69.1198 15.4952 68.8588 16.0892 68.3368 16.5752C67.8328 17.0432 67.1848 17.2772 66.3928 17.2772ZM68.6878 18.8432V33.9092H64.0708V18.8432H68.6878Z" fill="#101828"/>
<path d="M77.4877 18.6272C78.5497 18.6272 79.4767 18.8432 80.2687 19.2752C81.0787 19.7072 81.6997 20.2742 82.1317 20.9762V18.8432H86.7487V33.8822C86.7487 35.2682 86.4697 36.5192 85.9117 37.6352C85.3717 38.7692 84.5347 39.6692 83.4007 40.3352C82.2847 41.0012 80.8897 41.3342 79.2157 41.3342C76.9837 41.3342 75.1747 40.8032 73.7887 39.7412C72.4027 38.6972 71.6107 37.2752 71.4127 35.4752H75.9757C76.1197 36.0512 76.4617 36.5012 77.0017 36.8252C77.5417 37.1672 78.2077 37.3382 78.9997 37.3382C79.9537 37.3382 80.7097 37.0592 81.2677 36.5012C81.8437 35.9612 82.1317 35.0882 82.1317 33.8822V31.7492C81.6817 32.4512 81.0607 33.0272 80.2687 33.4772C79.4767 33.9092 78.5497 34.1252 77.4877 34.1252C76.2457 34.1252 75.1207 33.8102 74.1127 33.1802C73.1047 32.5322 72.3037 31.6232 71.7097 30.4532C71.1337 29.2652 70.8457 27.8972 70.8457 26.3492C70.8457 24.8012 71.1337 23.4422 71.7097 22.2722C72.3037 21.1022 73.1047 20.2022 74.1127 19.5722C75.1207 18.9422 76.2457 18.6272 77.4877 18.6272ZM82.1317 26.3762C82.1317 25.2242 81.8077 24.3152 81.1597 23.6492C80.5297 22.9832 79.7557 22.6502 78.8377 22.6502C77.9197 22.6502 77.1367 22.9832 76.4887 23.6492C75.8587 24.2972 75.5437 25.1972 75.5437 26.3492C75.5437 27.5012 75.8587 28.4192 76.4887 29.1032C77.1367 29.7692 77.9197 30.1022 78.8377 30.1022C79.7557 30.1022 80.5297 29.7692 81.1597 29.1032C81.8077 28.4372 82.1317 27.5282 82.1317 26.3762Z" fill="#101828"/>
<path d="M99.0799 18.6812C100.808 18.6812 102.194 19.2572 103.238 20.4092C104.282 21.5432 104.804 23.1092 104.804 25.1072V33.9092H100.214V25.7282C100.214 24.7202 99.9529 23.9372 99.4309 23.3792C98.9089 22.8212 98.2069 22.5422 97.3249 22.5422C96.4429 22.5422 95.7409 22.8212 95.2189 23.3792C94.6969 23.9372 94.4359 24.7202 94.4359 25.7282V33.9092H89.8189V13.9292H94.4359V20.8682C94.9039 20.2022 95.5429 19.6712 96.3529 19.2752C97.1629 18.8792 98.0719 18.6812 99.0799 18.6812Z" fill="#101828"/>
<path d="M116.139 29.9942V33.9092H113.79C112.116 33.9092 110.811 33.5042 109.875 32.6942C108.939 31.8662 108.471 30.5252 108.471 28.6712V22.6772H106.635V18.8432H108.471V15.1712H113.088V18.8432H116.112V22.6772H113.088V28.7252C113.088 29.1752 113.196 29.4992 113.412 29.6972C113.628 29.8952 113.988 29.9942 114.492 29.9942H116.139Z" fill="#101828"/>
<path d="M123.058 20.9762C123.49 20.2742 124.111 19.7072 124.921 19.2752C125.731 18.8432 126.658 18.6272 127.702 18.6272C128.944 18.6272 130.069 18.9422 131.077 19.5722C132.085 20.2022 132.877 21.1022 133.453 22.2722C134.047 23.4422 134.344 24.8012 134.344 26.3492C134.344 27.8972 134.047 29.2652 133.453 30.4532C132.877 31.6232 132.085 32.5322 131.077 33.1802C130.069 33.8102 128.944 34.1252 127.702 34.1252C126.64 34.1252 125.713 33.9182 124.921 33.5042C124.129 33.0722 123.508 32.5052 123.058 31.8032V33.9092H118.441V13.9292H123.058V20.9762ZM129.646 26.3492C129.646 25.1972 129.322 24.2972 128.674 23.6492C128.044 22.9832 127.261 22.6502 126.325 22.6502C125.407 22.6502 124.624 22.9832 123.976 23.6492C123.346 24.3152 123.031 25.2242 123.031 26.3762C123.031 27.5282 123.346 28.4372 123.976 29.1032C124.624 29.7692 125.407 30.1022 126.325 30.1022C127.243 30.1022 128.026 29.7692 128.674 29.1032C129.322 28.4192 129.646 27.5012 129.646 26.3492Z" fill="#101828"/>
<path d="M143.354 34.1252C141.878 34.1252 140.546 33.8102 139.358 33.1802C138.188 32.5502 137.261 31.6502 136.577 30.4802C135.911 29.3102 135.578 27.9422 135.578 26.3762C135.578 24.8282 135.92 23.4692 136.604 22.2992C137.288 21.1112 138.224 20.2022 139.412 19.5722C140.6 18.9422 141.932 18.6272 143.408 18.6272C144.884 18.6272 146.216 18.9422 147.404 19.5722C148.592 20.2022 149.528 21.1112 150.212 22.2992C150.896 23.4692 151.238 24.8282 151.238 26.3762C151.238 27.9242 150.887 29.2922 150.185 30.4802C149.501 31.6502 148.556 32.5502 147.35 33.1802C146.162 33.8102 144.83 34.1252 143.354 34.1252ZM143.354 30.1292C144.236 30.1292 144.983 29.8052 145.595 29.1572C146.225 28.5092 146.54 27.5822 146.54 26.3762C146.54 25.1702 146.234 24.2432 145.622 23.5952C145.028 22.9472 144.29 22.6232 143.408 22.6232C142.508 22.6232 141.761 22.9472 141.167 23.5952C140.573 24.2252 140.276 25.1522 140.276 26.3762C140.276 27.5822 140.564 28.5092 141.14 29.1572C141.734 29.8052 142.472 30.1292 143.354 30.1292Z" fill="#101828"/>
<path d="M162.328 33.9092L159.439 29.7242L157.009 33.9092H152.014L156.982 26.2142L151.879 18.8432H157.063L159.952 23.0012L162.382 18.8432H167.377L162.328 26.4302L167.512 33.9092H162.328Z" fill="#101828"/>
</svg>
