<svg width="198" height="48" viewBox="0 0 198 48" fill="none" xmlns="http://www.w3.org/2000/svg">
<path d="M30.6291 2H13.7713L0.200195 15.5711V32.4289L13.7713 46H30.6291L44.2002 32.4289V15.5711L30.6291 2ZM16.1038 32.641L7.40985 23.947L16.1038 15.253C19.3906 11.9663 24.7978 11.9663 28.0846 15.253L36.7785 23.947L28.0846 32.641C24.7978 35.9277 19.4966 35.9277 16.1038 32.641Z" fill="#444CE7"/>
<path d="M63.5402 34.24C66.2402 34.24 68.4602 32.86 69.1502 30.79V34H73.1402V25.9C73.1402 24.07 71.7002 22.51 69.7502 22.51H64.0502V25.9H68.1002C68.6102 25.9 68.9402 26.23 68.9402 26.74C68.9402 28.69 66.3602 30.58 63.7502 30.58C60.2702 30.58 57.5102 27.85 57.5102 23.5C57.5102 19.15 60.2702 16.63 63.8402 16.63C66.5402 16.63 68.4002 18.1 68.7302 20.35H73.2002C72.9302 15.85 69.1502 12.76 63.8702 12.76C58.3202 12.76 53.2202 16.33 53.2202 23.5C53.2202 30.67 58.1702 34.24 63.5402 34.24Z" fill="#101828"/>
<path d="M74.853 34H79.023V12.31H74.853V34Z" fill="#101828"/>
<path d="M88.0181 34.24C92.6681 34.24 95.9981 30.94 95.9981 26.44C95.9981 21.94 92.6681 18.64 88.0181 18.64C83.3681 18.64 80.0381 21.94 80.0381 26.44C80.0381 30.94 83.3681 34.24 88.0181 34.24ZM88.0181 30.64C85.7681 30.64 84.2381 28.93 84.2381 26.44C84.2381 23.92 85.7681 22.21 88.0181 22.21C90.2681 22.21 91.7981 23.92 91.7981 26.44C91.7981 28.93 90.2681 30.64 88.0181 30.64Z" fill="#101828"/>
<path d="M105.329 34.24C109.799 34.24 112.469 31.15 112.469 26.44C112.469 21.73 109.799 18.64 105.389 18.64C103.499 18.64 102.029 19.36 101.189 20.47V12.31H97.019V34H101.189V32.35C102.029 33.52 103.589 34.24 105.329 34.24ZM104.669 30.64C102.419 30.64 100.949 28.96 100.949 26.44C100.949 23.89 102.419 22.21 104.669 22.21C106.859 22.21 108.359 23.89 108.359 26.44C108.359 28.96 106.859 30.64 104.669 30.64Z" fill="#101828"/>
<path d="M119.449 18.64C115.309 18.64 112.849 21.07 112.669 24.1H116.389C116.449 22.84 117.379 21.7 119.209 21.7C120.919 21.7 121.909 22.57 121.909 23.83C121.909 24.46 121.519 24.94 120.769 24.94H118.219C114.919 24.94 112.699 26.74 112.699 29.71C112.699 32.29 114.709 34.24 117.649 34.24C119.719 34.24 121.399 33.31 121.909 31.9V34H126.049V24.28C126.049 20.86 123.259 18.64 119.449 18.64ZM118.699 31.21C117.529 31.21 116.689 30.52 116.689 29.53C116.689 28.36 117.589 27.58 118.849 27.58H121.909V27.79C121.909 29.71 120.739 31.21 118.699 31.21Z" fill="#101828"/>
<path d="M127.652 34H131.822V12.31H127.652V34Z" fill="#101828"/>
<path d="M134.037 34H142.617C147.057 34 150.117 31.72 150.117 27.73C150.117 24.97 148.497 23.29 146.577 22.54C147.807 21.88 149.037 20.38 149.037 18.4C149.037 14.89 146.187 13 142.377 13H134.037V34ZM138.477 21.01V16.57H141.957C143.967 16.57 144.867 17.38 144.867 18.79C144.867 20.2 143.967 21.01 142.047 21.01H138.477ZM138.477 30.1V24.82H142.227C144.717 24.82 145.827 25.78 145.827 27.49C145.827 29.2 144.717 30.1 142.227 30.1H138.477Z" fill="#101828"/>
<path d="M157.371 18.64C153.231 18.64 150.771 21.07 150.591 24.1H154.311C154.371 22.84 155.301 21.7 157.131 21.7C158.841 21.7 159.831 22.57 159.831 23.83C159.831 24.46 159.441 24.94 158.691 24.94H156.141C152.841 24.94 150.621 26.74 150.621 29.71C150.621 32.29 152.631 34.24 155.571 34.24C157.641 34.24 159.321 33.31 159.831 31.9V34H163.971V24.28C163.971 20.86 161.181 18.64 157.371 18.64ZM156.621 31.21C155.451 31.21 154.611 30.52 154.611 29.53C154.611 28.36 155.511 27.58 156.771 27.58H159.831V27.79C159.831 29.71 158.661 31.21 156.621 31.21Z" fill="#101828"/>
<path d="M165.334 34H169.534V25.72C169.534 23.77 170.824 22.36 172.654 22.36C174.394 22.36 175.564 23.68 175.564 25.51V34H179.764V24.58C179.764 21.1 177.544 18.64 174.124 18.64C172.054 18.64 170.374 19.51 169.534 20.98V18.88H165.334V34Z" fill="#101828"/>
<path d="M191.734 34H196.774L190.264 24.82L196.294 18.88H191.014L185.764 24.04V12.31H181.564V34H185.764V29.26L187.444 27.61L191.734 34Z" fill="#101828"/>
</svg>
