<svg width="167" height="48" viewBox="0 0 167 48" fill="none" xmlns="http://www.w3.org/2000/svg">
<circle cx="22.3999" cy="24.2499" r="20.5" stroke="#6927DA" stroke-width="3"/>
<path d="M30.5314 32.3817C26.392 36.5211 21.7025 39.2234 17.5261 40.2973C13.3121 41.3809 9.91543 40.7571 7.90402 38.7457C5.89261 36.7343 5.26883 33.3377 6.35245 29.1236C7.42637 24.9472 10.1286 20.2577 14.268 16.1183C18.4074 11.9789 23.0969 9.27668 27.2733 8.20276C31.4874 7.11913 34.884 7.74292 36.8954 9.75433C38.9068 11.7657 39.5306 15.1624 38.447 19.3765C37.373 23.5528 34.6708 28.2424 30.5314 32.3817Z" stroke="#6927DA" stroke-width="3"/>
<path d="M30.5313 16.1182C34.6707 20.2576 37.373 24.9471 38.4469 29.1235C39.5305 33.3376 38.9067 36.7342 36.8953 38.7456C34.8839 40.757 31.4873 41.3808 27.2732 40.2972C23.0968 39.2233 18.4073 36.5211 14.2679 32.3817C10.1285 28.2423 7.42628 23.5528 6.35236 19.3764C5.26873 15.1623 5.89252 11.7657 7.90393 9.75426C9.91533 7.74285 13.312 7.11906 17.5261 8.20269C21.7024 9.27661 26.3919 11.9788 30.5313 16.1182Z" stroke="#6927DA" stroke-width="3"/>
<path d="M63.2501 34.24C67.9601 34.24 71.1401 31.78 71.1401 27.85C71.1401 19.54 60.1001 23.08 60.1001 18.7C60.1001 17.47 61.2101 16.63 62.9801 16.63C64.9901 16.63 66.2501 17.71 66.4001 19.36H70.6901C70.5701 15.37 67.5101 12.76 62.9801 12.76C58.7201 12.76 55.7201 15.22 55.7201 18.7C55.7201 26.95 66.6101 23.8 66.6101 27.91C66.6101 29.5 65.2601 30.34 63.2501 30.34C61.0301 30.34 59.6201 28.99 59.4401 26.86H55.1201C55.3001 31.33 58.4801 34.24 63.2501 34.24Z" fill="#101828"/>
<path d="M72.1604 40.12H76.3304V32.65C77.1404 33.67 78.6104 34.24 80.3204 34.24C84.6704 34.24 87.6104 31.15 87.6104 26.44C87.6104 21.73 84.9104 18.64 80.6804 18.64C78.7304 18.64 77.2304 19.36 76.3304 20.53V18.88H72.1604V40.12ZM79.8104 30.64C77.5604 30.64 76.0904 28.96 76.0904 26.44C76.0904 23.89 77.5604 22.21 79.8104 22.21C82.0004 22.21 83.5004 23.89 83.5004 26.44C83.5004 28.96 82.0004 30.64 79.8104 30.64Z" fill="#101828"/>
<path d="M88.6193 34H92.7893V25.72C92.7893 23.77 94.0793 22.36 95.9093 22.36C97.6493 22.36 98.8493 23.68 98.8493 25.51V34H103.019V24.58C103.019 21.1 100.799 18.64 97.4093 18.64C95.3093 18.64 93.6593 19.51 92.7893 20.98V12.31H88.6193V34Z" fill="#101828"/>
<path d="M114.685 28.87C114.355 30.16 113.245 30.82 111.565 30.82C109.465 30.82 108.115 29.5 107.815 27.37H118.675C118.705 27.04 118.735 26.59 118.735 26.02C118.735 22.57 116.605 18.64 111.265 18.64C106.135 18.64 103.795 22.57 103.795 26.41C103.795 30.22 106.435 34.24 111.565 34.24C115.285 34.24 118.165 32.14 118.765 28.87H114.685ZM111.265 21.7C113.275 21.7 114.445 23.05 114.565 24.73H107.875C108.235 22.63 109.375 21.7 111.265 21.7Z" fill="#101828"/>
<path d="M129.671 22.36V18.88H127.519C125.689 18.88 124.549 19.51 123.739 21.4V18.88H119.539V34H123.739V26.65C123.739 24.07 124.669 22.36 126.739 22.36H129.671Z" fill="#101828"/>
<path d="M144.071 18.88H139.871V27.16C139.871 29.08 138.581 30.52 136.751 30.52C135.041 30.52 133.841 29.2 133.841 27.37V18.88H129.671V28.3C129.671 31.75 131.891 34.24 135.281 34.24C137.351 34.24 139.031 33.34 139.871 31.9V34H144.071V18.88Z" fill="#101828"/>
<path d="M145.871 34H150.041V12.31H145.871V34Z" fill="#101828"/>
<path d="M161.946 28.87C161.616 30.16 160.506 30.82 158.826 30.82C156.726 30.82 155.376 29.5 155.076 27.37H165.936C165.966 27.04 165.996 26.59 165.996 26.02C165.996 22.57 163.866 18.64 158.526 18.64C153.396 18.64 151.056 22.57 151.056 26.41C151.056 30.22 153.696 34.24 158.826 34.24C162.546 34.24 165.426 32.14 166.026 28.87H161.946ZM158.526 21.7C160.536 21.7 161.706 23.05 161.826 24.73H155.136C155.496 22.63 156.636 21.7 158.526 21.7Z" fill="#101828"/>
</svg>
