<svg xmlns="http://www.w3.org/2000/svg" width="230" height="229" viewBox="0 0 230 229" fill="none">
  <path fill-rule="evenodd" clip-rule="evenodd" d="M115 229C178.237 229 229.5 177.737 229.5 114.5C229.5 51.2634 178.237 0 115 0C86.6289 0 75.8445 34.029 55.8417 51.1181C31.2601 72.1191 0.5 79.6345 0.5 114.5C0.5 177.737 51.7634 229 115 229Z" fill="#FFFAEE" fill-opacity="0.6"/>
  <g filter="url(#filter0_f_1211_4067)">
    <path d="M183.701 74.425H84.4672C81.3054 74.425 78.7422 76.6167 78.7422 79.3203V182.121C78.7422 184.825 81.3054 187.017 84.4672 187.017H183.701C186.862 187.017 189.426 184.825 189.426 182.121V79.3203C189.426 76.6167 186.862 74.425 183.701 74.425Z" fill="white"/>
    <path d="M183.701 74.425H84.4672C81.3054 74.425 78.7422 76.6167 78.7422 79.3203V182.121C78.7422 184.825 81.3054 187.017 84.4672 187.017H183.701C186.862 187.017 189.426 184.825 189.426 182.121V79.3203C189.426 76.6167 186.862 74.425 183.701 74.425Z" fill="#FFF0D0"/>
  </g>
  <path d="M69.1992 78.2418C69.1992 69.8102 76.0343 62.9751 84.4659 62.9751H156.983C165.414 62.9751 172.249 69.8102 172.249 78.2418V160.3C172.249 168.732 165.414 175.567 156.983 175.567H84.4659C76.0343 175.567 69.1992 168.732 69.1992 160.3V78.2418Z" fill="white"/>
  <path fill-rule="evenodd" clip-rule="evenodd" d="M90.1914 66.7917C90.1914 59.4141 96.1721 53.4333 103.55 53.4333H137.9C145.277 53.4333 151.258 59.4141 151.258 66.7917V76.3333C151.258 79.4952 148.695 82.0583 145.533 82.0583C142.371 82.0583 139.808 79.4952 139.808 76.3333V66.7917C139.808 65.7377 138.954 64.8833 137.9 64.8833H103.55C102.496 64.8833 101.641 65.7377 101.641 66.7917V76.3333C101.641 79.4952 99.0782 82.0583 95.9164 82.0583C92.7546 82.0583 90.1914 79.4952 90.1914 76.3333V66.7917Z" fill="#DA9A0A"/>
  <defs>
    <filter id="filter0_f_1211_4067" x="57.7505" y="53.4334" width="152.667" height="154.575" filterUnits="userSpaceOnUse" color-interpolation-filters="sRGB">
      <feFlood flood-opacity="0" result="BackgroundImageFix"/>
      <feBlend mode="normal" in="SourceGraphic" in2="BackgroundImageFix" result="shape"/>
      <feGaussianBlur stdDeviation="10.4958" result="effect1_foregroundBlur_1211_4067"/>
    </filter>
  </defs>
</svg>