<svg width="48" height="48" viewBox="0 0 48 48" fill="none" xmlns="http://www.w3.org/2000/svg">
<g clip-path="url(#clip0_696_1298)">
<path d="M35.3997 15.6C34.519 16.1218 33.5563 16.4906 32.5524 16.6908C31.6993 15.7961 30.516 15.2912 29.2797 15.2944C26.8444 15.2762 24.8488 17.223 24.807 19.658C24.808 19.9961 24.8482 20.3329 24.927 20.6617C21.3403 20.4924 17.9905 18.8215 15.6979 16.0581C15.3057 16.719 15.095 17.4716 15.087 18.24C15.0871 19.7215 15.8389 21.1017 17.0834 21.9054C16.3727 21.8823 15.6774 21.6917 15.0543 21.349C15.0543 21.349 15.0543 21.349 15.0543 21.4036C15.0471 23.5314 16.5541 25.3637 18.6434 25.7672C17.9848 25.9428 17.2952 25.9688 16.6252 25.8436C17.2276 27.646 18.9032 28.8709 20.8034 28.8981C19.2215 30.1283 17.2764 30.7997 15.2725 30.8073C14.9079 30.8069 14.5436 30.785 14.1816 30.7418C16.2346 32.0404 18.6142 32.729 21.0435 32.7273C27.971 32.8538 33.6894 27.3405 33.816 20.413C33.8173 20.3396 33.818 20.2662 33.818 20.1927C33.818 20.0036 33.818 19.8145 33.818 19.6254C34.673 18.9988 35.4115 18.2271 35.9999 17.3454C35.1809 17.704 34.3133 17.9392 33.4253 18.0436C34.3592 17.4969 35.0614 16.6279 35.3997 15.6Z" fill="white"/>
<path d="M24 0C10.7452 0 0 10.7452 0 24C0 37.2548 10.7452 48 24 48C37.2548 48 48 37.2548 48 24C48 10.7452 37.2548 0 24 0ZM24 45.8182C11.9501 45.8182 2.18184 36.0499 2.18184 24C2.18184 11.9501 11.9501 2.18184 24 2.18184C36.0499 2.18184 45.8182 11.9501 45.8182 24C45.8182 36.0499 36.0499 45.8182 24 45.8182Z" fill="white"/>
</g>
<defs>
<clipPath id="clip0_696_1298">
<rect width="48" height="48" fill="white"/>
</clipPath>
</defs>
</svg>
